<mxfile host="Electron" modified="2024-05-20T15:00:14.811Z" agent="Mozilla/5.0 (X11; Linux x86_64) AppleWebKit/537.36 (KHTML, like Gecko) draw.io/22.0.3 Chrome/114.0.5735.289 Electron/25.8.4 Safari/537.36" etag="09oaWFcu8jEzA8pSE39E" version="22.0.3" type="device" pages="6">
  <diagram name="第 1 页" id="BDQd5IqOA_8kylKZkV01">
    <mxGraphModel dx="1434" dy="880" grid="1" gridSize="10" guides="1" tooltips="1" connect="1" arrows="1" fold="1" page="1" pageScale="1" pageWidth="4681" pageHeight="3300" math="0" shadow="0">
      <root>
        <mxCell id="0" />
        <mxCell id="1" parent="0" />
        <mxCell id="11xswtCavYW7JniqjhoP-1" value="fld" style="text;html=1;strokeColor=none;fillColor=none;align=center;verticalAlign=middle;whiteSpace=wrap;rounded=0;" vertex="1" parent="1">
          <mxGeometry x="930" y="630" width="60" height="30" as="geometry" />
        </mxCell>
        <mxCell id="11xswtCavYW7JniqjhoP-3" value="fmul" style="text;html=1;strokeColor=none;fillColor=none;align=center;verticalAlign=middle;whiteSpace=wrap;rounded=0;" vertex="1" parent="1">
          <mxGeometry x="930" y="670" width="60" height="30" as="geometry" />
        </mxCell>
        <mxCell id="11xswtCavYW7JniqjhoP-4" value="fld" style="text;html=1;strokeColor=none;fillColor=none;align=center;verticalAlign=middle;whiteSpace=wrap;rounded=0;" vertex="1" parent="1">
          <mxGeometry x="930" y="710" width="60" height="30" as="geometry" />
        </mxCell>
        <mxCell id="11xswtCavYW7JniqjhoP-5" value="fadd" style="text;html=1;strokeColor=none;fillColor=none;align=center;verticalAlign=middle;whiteSpace=wrap;rounded=0;" vertex="1" parent="1">
          <mxGeometry x="930" y="750" width="60" height="30" as="geometry" />
        </mxCell>
        <mxCell id="11xswtCavYW7JniqjhoP-6" value="fst" style="text;html=1;strokeColor=none;fillColor=none;align=center;verticalAlign=middle;whiteSpace=wrap;rounded=0;" vertex="1" parent="1">
          <mxGeometry x="930" y="787.5" width="60" height="30" as="geometry" />
        </mxCell>
        <mxCell id="11xswtCavYW7JniqjhoP-7" value="fld" style="text;html=1;strokeColor=none;fillColor=none;align=center;verticalAlign=middle;whiteSpace=wrap;rounded=0;" vertex="1" parent="1">
          <mxGeometry x="930" y="827.5" width="60" height="30" as="geometry" />
        </mxCell>
        <mxCell id="11xswtCavYW7JniqjhoP-8" value="fmul" style="text;html=1;strokeColor=none;fillColor=none;align=center;verticalAlign=middle;whiteSpace=wrap;rounded=0;" vertex="1" parent="1">
          <mxGeometry x="930" y="870" width="60" height="30" as="geometry" />
        </mxCell>
        <mxCell id="11xswtCavYW7JniqjhoP-9" value="fld" style="text;html=1;strokeColor=none;fillColor=none;align=center;verticalAlign=middle;whiteSpace=wrap;rounded=0;" vertex="1" parent="1">
          <mxGeometry x="930" y="910" width="60" height="30" as="geometry" />
        </mxCell>
        <mxCell id="11xswtCavYW7JniqjhoP-10" value="fadd" style="text;html=1;strokeColor=none;fillColor=none;align=center;verticalAlign=middle;whiteSpace=wrap;rounded=0;" vertex="1" parent="1">
          <mxGeometry x="930" y="950" width="60" height="30" as="geometry" />
        </mxCell>
        <mxCell id="11xswtCavYW7JniqjhoP-11" value="fst" style="text;html=1;strokeColor=none;fillColor=none;align=center;verticalAlign=middle;whiteSpace=wrap;rounded=0;" vertex="1" parent="1">
          <mxGeometry x="930" y="990" width="60" height="30" as="geometry" />
        </mxCell>
        <mxCell id="11xswtCavYW7JniqjhoP-12" value="IF" style="rounded=0;whiteSpace=wrap;html=1;fillColor=#ffe6cc;strokeColor=#d79b00;" vertex="1" parent="1">
          <mxGeometry x="1040" y="580" width="30" height="25" as="geometry" />
        </mxCell>
        <mxCell id="11xswtCavYW7JniqjhoP-13" value="ID" style="rounded=0;whiteSpace=wrap;html=1;fillColor=#dae8fc;strokeColor=#6c8ebf;" vertex="1" parent="1">
          <mxGeometry x="1030" y="632.5" width="30" height="25" as="geometry" />
        </mxCell>
        <mxCell id="11xswtCavYW7JniqjhoP-14" value="EXE" style="rounded=0;whiteSpace=wrap;html=1;fillColor=#d5e8d4;strokeColor=#82b366;" vertex="1" parent="1">
          <mxGeometry x="1140" y="580" width="30" height="25" as="geometry" />
        </mxCell>
        <mxCell id="11xswtCavYW7JniqjhoP-15" value="MEM" style="rounded=0;whiteSpace=wrap;html=1;fillColor=#e1d5e7;strokeColor=#9673a6;" vertex="1" parent="1">
          <mxGeometry x="1230" y="632.5" width="30" height="25" as="geometry" />
        </mxCell>
        <mxCell id="11xswtCavYW7JniqjhoP-16" value="WB" style="rounded=0;whiteSpace=wrap;html=1;fillColor=#bac8d3;strokeColor=#23445d;" vertex="1" parent="1">
          <mxGeometry x="1240" y="580" width="30" height="25" as="geometry" />
        </mxCell>
        <mxCell id="11xswtCavYW7JniqjhoP-17" value="IF" style="rounded=0;whiteSpace=wrap;html=1;fillColor=#ffe6cc;strokeColor=#d79b00;" vertex="1" parent="1">
          <mxGeometry x="990" y="632.5" width="30" height="25" as="geometry" />
        </mxCell>
        <mxCell id="11xswtCavYW7JniqjhoP-18" value="ID" style="rounded=0;whiteSpace=wrap;html=1;fillColor=#dae8fc;strokeColor=#6c8ebf;" vertex="1" parent="1">
          <mxGeometry x="1090" y="580" width="30" height="25" as="geometry" />
        </mxCell>
        <mxCell id="11xswtCavYW7JniqjhoP-19" value="EXE" style="rounded=0;whiteSpace=wrap;html=1;fillColor=#d5e8d4;strokeColor=#82b366;" vertex="1" parent="1">
          <mxGeometry x="1070" y="632.5" width="30" height="25" as="geometry" />
        </mxCell>
        <mxCell id="11xswtCavYW7JniqjhoP-20" value="MEM" style="rounded=0;whiteSpace=wrap;html=1;fillColor=#e1d5e7;strokeColor=#9673a6;" vertex="1" parent="1">
          <mxGeometry x="1110" y="632.5" width="30" height="25" as="geometry" />
        </mxCell>
        <mxCell id="11xswtCavYW7JniqjhoP-21" value="MEM" style="rounded=0;whiteSpace=wrap;html=1;fillColor=#e1d5e7;strokeColor=#9673a6;" vertex="1" parent="1">
          <mxGeometry x="1150" y="632.5" width="30" height="25" as="geometry" />
        </mxCell>
        <mxCell id="11xswtCavYW7JniqjhoP-22" value="MEM" style="rounded=0;whiteSpace=wrap;html=1;fillColor=#e1d5e7;strokeColor=#9673a6;" vertex="1" parent="1">
          <mxGeometry x="1190" y="632.5" width="30" height="25" as="geometry" />
        </mxCell>
        <mxCell id="11xswtCavYW7JniqjhoP-23" value="WB" style="rounded=0;whiteSpace=wrap;html=1;fillColor=#bac8d3;strokeColor=#23445d;" vertex="1" parent="1">
          <mxGeometry x="1270" y="632.5" width="30" height="25" as="geometry" />
        </mxCell>
        <mxCell id="11xswtCavYW7JniqjhoP-24" value="IF" style="rounded=0;whiteSpace=wrap;html=1;fillColor=#ffe6cc;strokeColor=#d79b00;" vertex="1" parent="1">
          <mxGeometry x="1030" y="670" width="30" height="25" as="geometry" />
        </mxCell>
        <mxCell id="11xswtCavYW7JniqjhoP-25" value="ID" style="rounded=0;whiteSpace=wrap;html=1;fillColor=#dae8fc;strokeColor=#6c8ebf;" vertex="1" parent="1">
          <mxGeometry x="1070" y="670" width="30" height="25" as="geometry" />
        </mxCell>
        <mxCell id="11xswtCavYW7JniqjhoP-26" value="EXE" style="rounded=0;whiteSpace=wrap;html=1;fillColor=#d5e8d4;strokeColor=#82b366;" vertex="1" parent="1">
          <mxGeometry x="1270" y="670" width="30" height="25" as="geometry" />
        </mxCell>
        <mxCell id="11xswtCavYW7JniqjhoP-27" value="EXE" style="rounded=0;whiteSpace=wrap;html=1;fillColor=#d5e8d4;strokeColor=#82b366;" vertex="1" parent="1">
          <mxGeometry x="1310" y="670" width="30" height="25" as="geometry" />
        </mxCell>
        <mxCell id="11xswtCavYW7JniqjhoP-28" value="EXE" style="rounded=0;whiteSpace=wrap;html=1;fillColor=#d5e8d4;strokeColor=#82b366;" vertex="1" parent="1">
          <mxGeometry x="1350" y="670" width="30" height="25" as="geometry" />
        </mxCell>
        <mxCell id="11xswtCavYW7JniqjhoP-29" value="MEM" style="rounded=0;whiteSpace=wrap;html=1;fillColor=#e1d5e7;strokeColor=#9673a6;" vertex="1" parent="1">
          <mxGeometry x="1390" y="670" width="30" height="25" as="geometry" />
        </mxCell>
        <mxCell id="11xswtCavYW7JniqjhoP-30" value="WB" style="rounded=0;whiteSpace=wrap;html=1;fillColor=#bac8d3;strokeColor=#23445d;" vertex="1" parent="1">
          <mxGeometry x="1430" y="670" width="30" height="25" as="geometry" />
        </mxCell>
        <mxCell id="11xswtCavYW7JniqjhoP-31" value="IF" style="rounded=0;whiteSpace=wrap;html=1;fillColor=#ffe6cc;strokeColor=#d79b00;" vertex="1" parent="1">
          <mxGeometry x="1070" y="710" width="30" height="25" as="geometry" />
        </mxCell>
        <mxCell id="11xswtCavYW7JniqjhoP-32" value="ID" style="rounded=0;whiteSpace=wrap;html=1;fillColor=#dae8fc;strokeColor=#6c8ebf;" vertex="1" parent="1">
          <mxGeometry x="1270" y="710" width="30" height="25" as="geometry" />
        </mxCell>
        <mxCell id="11xswtCavYW7JniqjhoP-35" value="EXE" style="rounded=0;whiteSpace=wrap;html=1;fillColor=#d5e8d4;strokeColor=#82b366;" vertex="1" parent="1">
          <mxGeometry x="1390" y="710" width="30" height="25" as="geometry" />
        </mxCell>
        <mxCell id="11xswtCavYW7JniqjhoP-36" value="MEM" style="rounded=0;whiteSpace=wrap;html=1;fillColor=#e1d5e7;strokeColor=#9673a6;" vertex="1" parent="1">
          <mxGeometry x="1550" y="710" width="30" height="25" as="geometry" />
        </mxCell>
        <mxCell id="11xswtCavYW7JniqjhoP-37" value="MEM" style="rounded=0;whiteSpace=wrap;html=1;fillColor=#e1d5e7;strokeColor=#9673a6;" vertex="1" parent="1">
          <mxGeometry x="1430" y="710" width="30" height="25" as="geometry" />
        </mxCell>
        <mxCell id="11xswtCavYW7JniqjhoP-38" value="MEM" style="rounded=0;whiteSpace=wrap;html=1;fillColor=#e1d5e7;strokeColor=#9673a6;" vertex="1" parent="1">
          <mxGeometry x="1470" y="710" width="30" height="25" as="geometry" />
        </mxCell>
        <mxCell id="11xswtCavYW7JniqjhoP-39" value="MEM" style="rounded=0;whiteSpace=wrap;html=1;fillColor=#e1d5e7;strokeColor=#9673a6;" vertex="1" parent="1">
          <mxGeometry x="1510" y="710" width="30" height="25" as="geometry" />
        </mxCell>
        <mxCell id="11xswtCavYW7JniqjhoP-40" value="WB" style="rounded=0;whiteSpace=wrap;html=1;fillColor=#bac8d3;strokeColor=#23445d;" vertex="1" parent="1">
          <mxGeometry x="1590" y="710" width="30" height="25" as="geometry" />
        </mxCell>
        <mxCell id="11xswtCavYW7JniqjhoP-41" value="IF" style="rounded=0;whiteSpace=wrap;html=1;fillColor=#ffe6cc;strokeColor=#d79b00;" vertex="1" parent="1">
          <mxGeometry x="1270" y="750" width="30" height="25" as="geometry" />
        </mxCell>
        <mxCell id="11xswtCavYW7JniqjhoP-42" value="ID" style="rounded=0;whiteSpace=wrap;html=1;fillColor=#dae8fc;strokeColor=#6c8ebf;" vertex="1" parent="1">
          <mxGeometry x="1390" y="750" width="30" height="25" as="geometry" />
        </mxCell>
        <mxCell id="11xswtCavYW7JniqjhoP-43" value="EXE" style="rounded=0;whiteSpace=wrap;html=1;fillColor=#d5e8d4;strokeColor=#82b366;" vertex="1" parent="1">
          <mxGeometry x="1590" y="750" width="30" height="25" as="geometry" />
        </mxCell>
        <mxCell id="11xswtCavYW7JniqjhoP-44" value="MEM" style="rounded=0;whiteSpace=wrap;html=1;fillColor=#e1d5e7;strokeColor=#9673a6;" vertex="1" parent="1">
          <mxGeometry x="1630" y="750" width="30" height="25" as="geometry" />
        </mxCell>
        <mxCell id="11xswtCavYW7JniqjhoP-45" value="WB" style="rounded=0;whiteSpace=wrap;html=1;fillColor=#bac8d3;strokeColor=#23445d;" vertex="1" parent="1">
          <mxGeometry x="1670" y="750" width="30" height="25" as="geometry" />
        </mxCell>
        <mxCell id="11xswtCavYW7JniqjhoP-46" value="IF" style="rounded=0;whiteSpace=wrap;html=1;fillColor=#ffe6cc;strokeColor=#d79b00;" vertex="1" parent="1">
          <mxGeometry x="1390" y="790" width="30" height="25" as="geometry" />
        </mxCell>
        <mxCell id="11xswtCavYW7JniqjhoP-47" value="ID" style="rounded=0;whiteSpace=wrap;html=1;fillColor=#dae8fc;strokeColor=#6c8ebf;" vertex="1" parent="1">
          <mxGeometry x="1590" y="790" width="30" height="25" as="geometry" />
        </mxCell>
        <mxCell id="11xswtCavYW7JniqjhoP-48" value="EXE" style="rounded=0;whiteSpace=wrap;html=1;fillColor=#d5e8d4;strokeColor=#82b366;" vertex="1" parent="1">
          <mxGeometry x="1630" y="790" width="30" height="25" as="geometry" />
        </mxCell>
        <mxCell id="11xswtCavYW7JniqjhoP-49" value="MEM" style="rounded=0;whiteSpace=wrap;html=1;fillColor=#e1d5e7;strokeColor=#9673a6;" vertex="1" parent="1">
          <mxGeometry x="1670" y="790" width="30" height="25" as="geometry" />
        </mxCell>
        <mxCell id="11xswtCavYW7JniqjhoP-50" value="WB" style="rounded=0;whiteSpace=wrap;html=1;fillColor=#bac8d3;strokeColor=#23445d;" vertex="1" parent="1">
          <mxGeometry x="1710" y="790" width="30" height="25" as="geometry" />
        </mxCell>
        <mxCell id="11xswtCavYW7JniqjhoP-51" value="IF" style="rounded=0;whiteSpace=wrap;html=1;fillColor=#ffe6cc;strokeColor=#d79b00;" vertex="1" parent="1">
          <mxGeometry x="1590" y="830" width="30" height="25" as="geometry" />
        </mxCell>
        <mxCell id="11xswtCavYW7JniqjhoP-52" value="ID" style="rounded=0;whiteSpace=wrap;html=1;fillColor=#dae8fc;strokeColor=#6c8ebf;" vertex="1" parent="1">
          <mxGeometry x="1630" y="830" width="30" height="25" as="geometry" />
        </mxCell>
        <mxCell id="11xswtCavYW7JniqjhoP-53" value="EXE" style="rounded=0;whiteSpace=wrap;html=1;fillColor=#d5e8d4;strokeColor=#82b366;" vertex="1" parent="1">
          <mxGeometry x="1670" y="830" width="30" height="25" as="geometry" />
        </mxCell>
        <mxCell id="11xswtCavYW7JniqjhoP-54" value="MEM" style="rounded=0;whiteSpace=wrap;html=1;fillColor=#e1d5e7;strokeColor=#9673a6;" vertex="1" parent="1">
          <mxGeometry x="1710" y="830" width="30" height="25" as="geometry" />
        </mxCell>
        <mxCell id="11xswtCavYW7JniqjhoP-55" value="WB" style="rounded=0;whiteSpace=wrap;html=1;fillColor=#bac8d3;strokeColor=#23445d;" vertex="1" parent="1">
          <mxGeometry x="1750" y="830" width="30" height="25" as="geometry" />
        </mxCell>
        <mxCell id="11xswtCavYW7JniqjhoP-56" value="IF" style="rounded=0;whiteSpace=wrap;html=1;fillColor=#ffe6cc;strokeColor=#d79b00;" vertex="1" parent="1">
          <mxGeometry x="1630" y="870" width="30" height="25" as="geometry" />
        </mxCell>
        <mxCell id="11xswtCavYW7JniqjhoP-57" value="ID" style="rounded=0;whiteSpace=wrap;html=1;fillColor=#dae8fc;strokeColor=#6c8ebf;" vertex="1" parent="1">
          <mxGeometry x="1670" y="870" width="30" height="25" as="geometry" />
        </mxCell>
        <mxCell id="11xswtCavYW7JniqjhoP-58" value="EXE" style="rounded=0;whiteSpace=wrap;html=1;fillColor=#d5e8d4;strokeColor=#82b366;" vertex="1" parent="1">
          <mxGeometry x="1750" y="870" width="30" height="25" as="geometry" />
        </mxCell>
        <mxCell id="11xswtCavYW7JniqjhoP-59" value="EXE" style="rounded=0;whiteSpace=wrap;html=1;fillColor=#d5e8d4;strokeColor=#82b366;" vertex="1" parent="1">
          <mxGeometry x="1790" y="870" width="30" height="25" as="geometry" />
        </mxCell>
        <mxCell id="11xswtCavYW7JniqjhoP-60" value="EXE" style="rounded=0;whiteSpace=wrap;html=1;fillColor=#d5e8d4;strokeColor=#82b366;" vertex="1" parent="1">
          <mxGeometry x="1830" y="870" width="30" height="25" as="geometry" />
        </mxCell>
        <mxCell id="11xswtCavYW7JniqjhoP-61" value="MEM" style="rounded=0;whiteSpace=wrap;html=1;fillColor=#e1d5e7;strokeColor=#9673a6;" vertex="1" parent="1">
          <mxGeometry x="1870" y="870" width="30" height="25" as="geometry" />
        </mxCell>
        <mxCell id="11xswtCavYW7JniqjhoP-62" value="WB" style="rounded=0;whiteSpace=wrap;html=1;fillColor=#bac8d3;strokeColor=#23445d;" vertex="1" parent="1">
          <mxGeometry x="1910" y="870" width="30" height="25" as="geometry" />
        </mxCell>
        <mxCell id="11xswtCavYW7JniqjhoP-63" value="IF" style="rounded=0;whiteSpace=wrap;html=1;fillColor=#ffe6cc;strokeColor=#d79b00;" vertex="1" parent="1">
          <mxGeometry x="1670" y="910" width="30" height="25" as="geometry" />
        </mxCell>
        <mxCell id="11xswtCavYW7JniqjhoP-64" value="ID" style="rounded=0;whiteSpace=wrap;html=1;fillColor=#dae8fc;strokeColor=#6c8ebf;" vertex="1" parent="1">
          <mxGeometry x="1750" y="910" width="30" height="25" as="geometry" />
        </mxCell>
        <mxCell id="11xswtCavYW7JniqjhoP-65" value="EXE" style="rounded=0;whiteSpace=wrap;html=1;fillColor=#d5e8d4;strokeColor=#82b366;" vertex="1" parent="1">
          <mxGeometry x="1870" y="910" width="30" height="25" as="geometry" />
        </mxCell>
        <mxCell id="11xswtCavYW7JniqjhoP-66" value="MEM" style="rounded=0;whiteSpace=wrap;html=1;fillColor=#e1d5e7;strokeColor=#9673a6;" vertex="1" parent="1">
          <mxGeometry x="1910" y="910" width="30" height="25" as="geometry" />
        </mxCell>
        <mxCell id="11xswtCavYW7JniqjhoP-67" value="WB" style="rounded=0;whiteSpace=wrap;html=1;fillColor=#bac8d3;strokeColor=#23445d;" vertex="1" parent="1">
          <mxGeometry x="1950" y="910" width="30" height="25" as="geometry" />
        </mxCell>
        <mxCell id="11xswtCavYW7JniqjhoP-68" value="IF" style="rounded=0;whiteSpace=wrap;html=1;fillColor=#ffe6cc;strokeColor=#d79b00;" vertex="1" parent="1">
          <mxGeometry x="1750" y="950" width="30" height="25" as="geometry" />
        </mxCell>
        <mxCell id="11xswtCavYW7JniqjhoP-69" value="ID" style="rounded=0;whiteSpace=wrap;html=1;fillColor=#dae8fc;strokeColor=#6c8ebf;" vertex="1" parent="1">
          <mxGeometry x="1870" y="950" width="30" height="25" as="geometry" />
        </mxCell>
        <mxCell id="11xswtCavYW7JniqjhoP-70" value="EXE" style="rounded=0;whiteSpace=wrap;html=1;fillColor=#d5e8d4;strokeColor=#82b366;" vertex="1" parent="1">
          <mxGeometry x="1950" y="950" width="30" height="25" as="geometry" />
        </mxCell>
        <mxCell id="11xswtCavYW7JniqjhoP-71" value="MEM" style="rounded=0;whiteSpace=wrap;html=1;fillColor=#e1d5e7;strokeColor=#9673a6;" vertex="1" parent="1">
          <mxGeometry x="1990" y="950" width="30" height="25" as="geometry" />
        </mxCell>
        <mxCell id="11xswtCavYW7JniqjhoP-72" value="WB" style="rounded=0;whiteSpace=wrap;html=1;fillColor=#bac8d3;strokeColor=#23445d;" vertex="1" parent="1">
          <mxGeometry x="2030" y="950" width="30" height="25" as="geometry" />
        </mxCell>
        <mxCell id="11xswtCavYW7JniqjhoP-73" value="IF" style="rounded=0;whiteSpace=wrap;html=1;fillColor=#ffe6cc;strokeColor=#d79b00;" vertex="1" parent="1">
          <mxGeometry x="1870" y="990" width="30" height="25" as="geometry" />
        </mxCell>
        <mxCell id="11xswtCavYW7JniqjhoP-74" value="ID" style="rounded=0;whiteSpace=wrap;html=1;fillColor=#dae8fc;strokeColor=#6c8ebf;" vertex="1" parent="1">
          <mxGeometry x="1950" y="990" width="30" height="25" as="geometry" />
        </mxCell>
        <mxCell id="11xswtCavYW7JniqjhoP-75" value="EXE" style="rounded=0;whiteSpace=wrap;html=1;fillColor=#d5e8d4;strokeColor=#82b366;" vertex="1" parent="1">
          <mxGeometry x="1990" y="990" width="30" height="25" as="geometry" />
        </mxCell>
        <mxCell id="11xswtCavYW7JniqjhoP-76" value="MEM" style="rounded=0;whiteSpace=wrap;html=1;fillColor=#e1d5e7;strokeColor=#9673a6;" vertex="1" parent="1">
          <mxGeometry x="2030" y="990" width="30" height="25" as="geometry" />
        </mxCell>
        <mxCell id="11xswtCavYW7JniqjhoP-77" value="WB" style="rounded=0;whiteSpace=wrap;html=1;fillColor=#bac8d3;strokeColor=#23445d;" vertex="1" parent="1">
          <mxGeometry x="2070" y="990" width="30" height="25" as="geometry" />
        </mxCell>
      </root>
    </mxGraphModel>
  </diagram>
  <diagram id="NQVpRsieifIJ27PasR4J" name="scalar_all">
    <mxGraphModel dx="1434" dy="880" grid="1" gridSize="10" guides="1" tooltips="1" connect="1" arrows="1" fold="1" page="1" pageScale="1" pageWidth="4681" pageHeight="3300" math="0" shadow="0">
      <root>
        <mxCell id="0" />
        <mxCell id="1" parent="0" />
        <mxCell id="6gXKYLrJOY6lN22b_xAF-1" value="fld" style="text;html=1;strokeColor=none;fillColor=none;align=center;verticalAlign=middle;whiteSpace=wrap;rounded=0;" vertex="1" parent="1">
          <mxGeometry x="140" y="270" width="60" height="30" as="geometry" />
        </mxCell>
        <mxCell id="6gXKYLrJOY6lN22b_xAF-2" value="fmul" style="text;html=1;strokeColor=none;fillColor=none;align=center;verticalAlign=middle;whiteSpace=wrap;rounded=0;" vertex="1" parent="1">
          <mxGeometry x="140" y="310" width="60" height="30" as="geometry" />
        </mxCell>
        <mxCell id="6gXKYLrJOY6lN22b_xAF-3" value="fld" style="text;html=1;strokeColor=none;fillColor=none;align=center;verticalAlign=middle;whiteSpace=wrap;rounded=0;" vertex="1" parent="1">
          <mxGeometry x="140" y="350" width="60" height="30" as="geometry" />
        </mxCell>
        <mxCell id="6gXKYLrJOY6lN22b_xAF-4" value="fadd" style="text;html=1;strokeColor=none;fillColor=none;align=center;verticalAlign=middle;whiteSpace=wrap;rounded=0;" vertex="1" parent="1">
          <mxGeometry x="140" y="390" width="60" height="30" as="geometry" />
        </mxCell>
        <mxCell id="6gXKYLrJOY6lN22b_xAF-5" value="fst" style="text;html=1;strokeColor=none;fillColor=none;align=center;verticalAlign=middle;whiteSpace=wrap;rounded=0;" vertex="1" parent="1">
          <mxGeometry x="140" y="427.5" width="60" height="30" as="geometry" />
        </mxCell>
        <mxCell id="6gXKYLrJOY6lN22b_xAF-6" value="fld" style="text;html=1;strokeColor=none;fillColor=none;align=center;verticalAlign=middle;whiteSpace=wrap;rounded=0;" vertex="1" parent="1">
          <mxGeometry x="140" y="467.5" width="60" height="30" as="geometry" />
        </mxCell>
        <mxCell id="6gXKYLrJOY6lN22b_xAF-7" value="fmul" style="text;html=1;strokeColor=none;fillColor=none;align=center;verticalAlign=middle;whiteSpace=wrap;rounded=0;" vertex="1" parent="1">
          <mxGeometry x="140" y="510" width="60" height="30" as="geometry" />
        </mxCell>
        <mxCell id="6gXKYLrJOY6lN22b_xAF-8" value="fld" style="text;html=1;strokeColor=none;fillColor=none;align=center;verticalAlign=middle;whiteSpace=wrap;rounded=0;" vertex="1" parent="1">
          <mxGeometry x="140" y="550" width="60" height="30" as="geometry" />
        </mxCell>
        <mxCell id="6gXKYLrJOY6lN22b_xAF-9" value="fadd" style="text;html=1;strokeColor=none;fillColor=none;align=center;verticalAlign=middle;whiteSpace=wrap;rounded=0;" vertex="1" parent="1">
          <mxGeometry x="140" y="590" width="60" height="30" as="geometry" />
        </mxCell>
        <mxCell id="6gXKYLrJOY6lN22b_xAF-10" value="fst" style="text;html=1;strokeColor=none;fillColor=none;align=center;verticalAlign=middle;whiteSpace=wrap;rounded=0;" vertex="1" parent="1">
          <mxGeometry x="140" y="630" width="60" height="30" as="geometry" />
        </mxCell>
        <mxCell id="6gXKYLrJOY6lN22b_xAF-11" value="IF" style="rounded=0;whiteSpace=wrap;html=1;fillColor=#ffe6cc;strokeColor=#d79b00;" vertex="1" parent="1">
          <mxGeometry x="250" y="220" width="30" height="25" as="geometry" />
        </mxCell>
        <mxCell id="6gXKYLrJOY6lN22b_xAF-12" value="ID" style="rounded=0;whiteSpace=wrap;html=1;fillColor=#dae8fc;strokeColor=#6c8ebf;" vertex="1" parent="1">
          <mxGeometry x="240" y="272.5" width="30" height="25" as="geometry" />
        </mxCell>
        <mxCell id="6gXKYLrJOY6lN22b_xAF-13" value="EXE" style="rounded=0;whiteSpace=wrap;html=1;fillColor=#d5e8d4;strokeColor=#82b366;" vertex="1" parent="1">
          <mxGeometry x="350" y="220" width="30" height="25" as="geometry" />
        </mxCell>
        <mxCell id="6gXKYLrJOY6lN22b_xAF-14" value="MEM" style="rounded=0;whiteSpace=wrap;html=1;fillColor=#e1d5e7;strokeColor=#9673a6;" vertex="1" parent="1">
          <mxGeometry x="440" y="272.5" width="30" height="25" as="geometry" />
        </mxCell>
        <mxCell id="6gXKYLrJOY6lN22b_xAF-15" value="WB" style="rounded=0;whiteSpace=wrap;html=1;fillColor=#bac8d3;strokeColor=#23445d;" vertex="1" parent="1">
          <mxGeometry x="450" y="220" width="30" height="25" as="geometry" />
        </mxCell>
        <mxCell id="6gXKYLrJOY6lN22b_xAF-16" value="IF" style="rounded=0;whiteSpace=wrap;html=1;fillColor=#ffe6cc;strokeColor=#d79b00;" vertex="1" parent="1">
          <mxGeometry x="200" y="272.5" width="30" height="25" as="geometry" />
        </mxCell>
        <mxCell id="6gXKYLrJOY6lN22b_xAF-17" value="ID" style="rounded=0;whiteSpace=wrap;html=1;fillColor=#dae8fc;strokeColor=#6c8ebf;" vertex="1" parent="1">
          <mxGeometry x="300" y="220" width="30" height="25" as="geometry" />
        </mxCell>
        <mxCell id="6gXKYLrJOY6lN22b_xAF-18" value="EXE" style="rounded=0;whiteSpace=wrap;html=1;fillColor=#d5e8d4;strokeColor=#82b366;" vertex="1" parent="1">
          <mxGeometry x="280" y="272.5" width="30" height="25" as="geometry" />
        </mxCell>
        <mxCell id="6gXKYLrJOY6lN22b_xAF-19" value="MEM" style="rounded=0;whiteSpace=wrap;html=1;fillColor=#e1d5e7;strokeColor=#9673a6;" vertex="1" parent="1">
          <mxGeometry x="320" y="272.5" width="30" height="25" as="geometry" />
        </mxCell>
        <mxCell id="6gXKYLrJOY6lN22b_xAF-20" value="MEM" style="rounded=0;whiteSpace=wrap;html=1;fillColor=#e1d5e7;strokeColor=#9673a6;" vertex="1" parent="1">
          <mxGeometry x="360" y="272.5" width="30" height="25" as="geometry" />
        </mxCell>
        <mxCell id="6gXKYLrJOY6lN22b_xAF-21" value="MEM" style="rounded=0;whiteSpace=wrap;html=1;fillColor=#e1d5e7;strokeColor=#9673a6;" vertex="1" parent="1">
          <mxGeometry x="400" y="272.5" width="30" height="25" as="geometry" />
        </mxCell>
        <mxCell id="6gXKYLrJOY6lN22b_xAF-22" value="WB" style="rounded=0;whiteSpace=wrap;html=1;fillColor=#bac8d3;strokeColor=#23445d;" vertex="1" parent="1">
          <mxGeometry x="480" y="272.5" width="30" height="25" as="geometry" />
        </mxCell>
        <mxCell id="6gXKYLrJOY6lN22b_xAF-23" value="IF" style="rounded=0;whiteSpace=wrap;html=1;fillColor=#ffe6cc;strokeColor=#d79b00;" vertex="1" parent="1">
          <mxGeometry x="240" y="310" width="30" height="25" as="geometry" />
        </mxCell>
        <mxCell id="6gXKYLrJOY6lN22b_xAF-24" value="ID" style="rounded=0;whiteSpace=wrap;html=1;fillColor=#dae8fc;strokeColor=#6c8ebf;" vertex="1" parent="1">
          <mxGeometry x="280" y="310" width="30" height="25" as="geometry" />
        </mxCell>
        <mxCell id="6gXKYLrJOY6lN22b_xAF-25" value="EXE" style="rounded=0;whiteSpace=wrap;html=1;fillColor=#d5e8d4;strokeColor=#82b366;" vertex="1" parent="1">
          <mxGeometry x="480" y="310" width="30" height="25" as="geometry" />
        </mxCell>
        <mxCell id="6gXKYLrJOY6lN22b_xAF-26" value="EXE" style="rounded=0;whiteSpace=wrap;html=1;fillColor=#d5e8d4;strokeColor=#82b366;" vertex="1" parent="1">
          <mxGeometry x="520" y="310" width="30" height="25" as="geometry" />
        </mxCell>
        <mxCell id="6gXKYLrJOY6lN22b_xAF-27" value="EXE" style="rounded=0;whiteSpace=wrap;html=1;fillColor=#d5e8d4;strokeColor=#82b366;" vertex="1" parent="1">
          <mxGeometry x="560" y="310" width="30" height="25" as="geometry" />
        </mxCell>
        <mxCell id="6gXKYLrJOY6lN22b_xAF-28" value="MEM" style="rounded=0;whiteSpace=wrap;html=1;fillColor=#e1d5e7;strokeColor=#9673a6;" vertex="1" parent="1">
          <mxGeometry x="600" y="310" width="30" height="25" as="geometry" />
        </mxCell>
        <mxCell id="6gXKYLrJOY6lN22b_xAF-29" value="WB" style="rounded=0;whiteSpace=wrap;html=1;fillColor=#bac8d3;strokeColor=#23445d;" vertex="1" parent="1">
          <mxGeometry x="640" y="310" width="30" height="25" as="geometry" />
        </mxCell>
        <mxCell id="6gXKYLrJOY6lN22b_xAF-30" value="IF" style="rounded=0;whiteSpace=wrap;html=1;fillColor=#ffe6cc;strokeColor=#d79b00;" vertex="1" parent="1">
          <mxGeometry x="280" y="350" width="30" height="25" as="geometry" />
        </mxCell>
        <mxCell id="6gXKYLrJOY6lN22b_xAF-31" value="ID" style="rounded=0;whiteSpace=wrap;html=1;fillColor=#dae8fc;strokeColor=#6c8ebf;" vertex="1" parent="1">
          <mxGeometry x="480" y="350" width="30" height="25" as="geometry" />
        </mxCell>
        <mxCell id="6gXKYLrJOY6lN22b_xAF-32" value="EXE" style="rounded=0;whiteSpace=wrap;html=1;fillColor=#d5e8d4;strokeColor=#82b366;" vertex="1" parent="1">
          <mxGeometry x="600" y="350" width="30" height="25" as="geometry" />
        </mxCell>
        <mxCell id="6gXKYLrJOY6lN22b_xAF-33" value="MEM" style="rounded=0;whiteSpace=wrap;html=1;fillColor=#e1d5e7;strokeColor=#9673a6;" vertex="1" parent="1">
          <mxGeometry x="760" y="350" width="30" height="25" as="geometry" />
        </mxCell>
        <mxCell id="6gXKYLrJOY6lN22b_xAF-34" value="MEM" style="rounded=0;whiteSpace=wrap;html=1;fillColor=#e1d5e7;strokeColor=#9673a6;" vertex="1" parent="1">
          <mxGeometry x="640" y="350" width="30" height="25" as="geometry" />
        </mxCell>
        <mxCell id="6gXKYLrJOY6lN22b_xAF-35" value="MEM" style="rounded=0;whiteSpace=wrap;html=1;fillColor=#e1d5e7;strokeColor=#9673a6;" vertex="1" parent="1">
          <mxGeometry x="680" y="350" width="30" height="25" as="geometry" />
        </mxCell>
        <mxCell id="6gXKYLrJOY6lN22b_xAF-36" value="MEM" style="rounded=0;whiteSpace=wrap;html=1;fillColor=#e1d5e7;strokeColor=#9673a6;" vertex="1" parent="1">
          <mxGeometry x="720" y="350" width="30" height="25" as="geometry" />
        </mxCell>
        <mxCell id="6gXKYLrJOY6lN22b_xAF-37" value="WB" style="rounded=0;whiteSpace=wrap;html=1;fillColor=#bac8d3;strokeColor=#23445d;" vertex="1" parent="1">
          <mxGeometry x="800" y="350" width="30" height="25" as="geometry" />
        </mxCell>
        <mxCell id="6gXKYLrJOY6lN22b_xAF-38" value="IF" style="rounded=0;whiteSpace=wrap;html=1;fillColor=#ffe6cc;strokeColor=#d79b00;" vertex="1" parent="1">
          <mxGeometry x="480" y="390" width="30" height="25" as="geometry" />
        </mxCell>
        <mxCell id="6gXKYLrJOY6lN22b_xAF-39" value="ID" style="rounded=0;whiteSpace=wrap;html=1;fillColor=#dae8fc;strokeColor=#6c8ebf;" vertex="1" parent="1">
          <mxGeometry x="600" y="390" width="30" height="25" as="geometry" />
        </mxCell>
        <mxCell id="6gXKYLrJOY6lN22b_xAF-40" value="EXE" style="rounded=0;whiteSpace=wrap;html=1;fillColor=#d5e8d4;strokeColor=#82b366;" vertex="1" parent="1">
          <mxGeometry x="800" y="390" width="30" height="25" as="geometry" />
        </mxCell>
        <mxCell id="6gXKYLrJOY6lN22b_xAF-41" value="MEM" style="rounded=0;whiteSpace=wrap;html=1;fillColor=#e1d5e7;strokeColor=#9673a6;" vertex="1" parent="1">
          <mxGeometry x="840" y="390" width="30" height="25" as="geometry" />
        </mxCell>
        <mxCell id="6gXKYLrJOY6lN22b_xAF-42" value="WB" style="rounded=0;whiteSpace=wrap;html=1;fillColor=#bac8d3;strokeColor=#23445d;" vertex="1" parent="1">
          <mxGeometry x="880" y="390" width="30" height="25" as="geometry" />
        </mxCell>
        <mxCell id="6gXKYLrJOY6lN22b_xAF-43" value="IF" style="rounded=0;whiteSpace=wrap;html=1;fillColor=#ffe6cc;strokeColor=#d79b00;" vertex="1" parent="1">
          <mxGeometry x="600" y="430" width="30" height="25" as="geometry" />
        </mxCell>
        <mxCell id="6gXKYLrJOY6lN22b_xAF-44" value="ID" style="rounded=0;whiteSpace=wrap;html=1;fillColor=#dae8fc;strokeColor=#6c8ebf;" vertex="1" parent="1">
          <mxGeometry x="800" y="430" width="30" height="25" as="geometry" />
        </mxCell>
        <mxCell id="6gXKYLrJOY6lN22b_xAF-45" value="EXE" style="rounded=0;whiteSpace=wrap;html=1;fillColor=#d5e8d4;strokeColor=#82b366;" vertex="1" parent="1">
          <mxGeometry x="840" y="430" width="30" height="25" as="geometry" />
        </mxCell>
        <mxCell id="6gXKYLrJOY6lN22b_xAF-46" value="MEM" style="rounded=0;whiteSpace=wrap;html=1;fillColor=#e1d5e7;strokeColor=#9673a6;" vertex="1" parent="1">
          <mxGeometry x="880" y="430" width="30" height="25" as="geometry" />
        </mxCell>
        <mxCell id="6gXKYLrJOY6lN22b_xAF-47" value="WB" style="rounded=0;whiteSpace=wrap;html=1;fillColor=#bac8d3;strokeColor=#23445d;" vertex="1" parent="1">
          <mxGeometry x="920" y="430" width="30" height="25" as="geometry" />
        </mxCell>
        <mxCell id="6gXKYLrJOY6lN22b_xAF-48" value="IF" style="rounded=0;whiteSpace=wrap;html=1;fillColor=#ffe6cc;strokeColor=#d79b00;" vertex="1" parent="1">
          <mxGeometry x="800" y="470" width="30" height="25" as="geometry" />
        </mxCell>
        <mxCell id="6gXKYLrJOY6lN22b_xAF-49" value="ID" style="rounded=0;whiteSpace=wrap;html=1;fillColor=#dae8fc;strokeColor=#6c8ebf;" vertex="1" parent="1">
          <mxGeometry x="840" y="470" width="30" height="25" as="geometry" />
        </mxCell>
        <mxCell id="6gXKYLrJOY6lN22b_xAF-50" value="EXE" style="rounded=0;whiteSpace=wrap;html=1;fillColor=#d5e8d4;strokeColor=#82b366;" vertex="1" parent="1">
          <mxGeometry x="880" y="470" width="30" height="25" as="geometry" />
        </mxCell>
        <mxCell id="6gXKYLrJOY6lN22b_xAF-51" value="MEM" style="rounded=0;whiteSpace=wrap;html=1;fillColor=#e1d5e7;strokeColor=#9673a6;" vertex="1" parent="1">
          <mxGeometry x="920" y="470" width="30" height="25" as="geometry" />
        </mxCell>
        <mxCell id="6gXKYLrJOY6lN22b_xAF-52" value="WB" style="rounded=0;whiteSpace=wrap;html=1;fillColor=#bac8d3;strokeColor=#23445d;" vertex="1" parent="1">
          <mxGeometry x="960" y="470" width="30" height="25" as="geometry" />
        </mxCell>
        <mxCell id="6gXKYLrJOY6lN22b_xAF-53" value="IF" style="rounded=0;whiteSpace=wrap;html=1;fillColor=#ffe6cc;strokeColor=#d79b00;" vertex="1" parent="1">
          <mxGeometry x="840" y="510" width="30" height="25" as="geometry" />
        </mxCell>
        <mxCell id="6gXKYLrJOY6lN22b_xAF-54" value="ID" style="rounded=0;whiteSpace=wrap;html=1;fillColor=#dae8fc;strokeColor=#6c8ebf;" vertex="1" parent="1">
          <mxGeometry x="880" y="510" width="30" height="25" as="geometry" />
        </mxCell>
        <mxCell id="6gXKYLrJOY6lN22b_xAF-55" value="EXE" style="rounded=0;whiteSpace=wrap;html=1;fillColor=#d5e8d4;strokeColor=#82b366;" vertex="1" parent="1">
          <mxGeometry x="960" y="510" width="30" height="25" as="geometry" />
        </mxCell>
        <mxCell id="6gXKYLrJOY6lN22b_xAF-56" value="EXE" style="rounded=0;whiteSpace=wrap;html=1;fillColor=#d5e8d4;strokeColor=#82b366;" vertex="1" parent="1">
          <mxGeometry x="1000" y="510" width="30" height="25" as="geometry" />
        </mxCell>
        <mxCell id="6gXKYLrJOY6lN22b_xAF-57" value="EXE" style="rounded=0;whiteSpace=wrap;html=1;fillColor=#d5e8d4;strokeColor=#82b366;" vertex="1" parent="1">
          <mxGeometry x="1040" y="510" width="30" height="25" as="geometry" />
        </mxCell>
        <mxCell id="6gXKYLrJOY6lN22b_xAF-58" value="MEM" style="rounded=0;whiteSpace=wrap;html=1;fillColor=#e1d5e7;strokeColor=#9673a6;" vertex="1" parent="1">
          <mxGeometry x="1080" y="510" width="30" height="25" as="geometry" />
        </mxCell>
        <mxCell id="6gXKYLrJOY6lN22b_xAF-59" value="WB" style="rounded=0;whiteSpace=wrap;html=1;fillColor=#bac8d3;strokeColor=#23445d;" vertex="1" parent="1">
          <mxGeometry x="1120" y="510" width="30" height="25" as="geometry" />
        </mxCell>
        <mxCell id="6gXKYLrJOY6lN22b_xAF-60" value="IF" style="rounded=0;whiteSpace=wrap;html=1;fillColor=#ffe6cc;strokeColor=#d79b00;" vertex="1" parent="1">
          <mxGeometry x="880" y="550" width="30" height="25" as="geometry" />
        </mxCell>
        <mxCell id="6gXKYLrJOY6lN22b_xAF-61" value="ID" style="rounded=0;whiteSpace=wrap;html=1;fillColor=#dae8fc;strokeColor=#6c8ebf;" vertex="1" parent="1">
          <mxGeometry x="960" y="550" width="30" height="25" as="geometry" />
        </mxCell>
        <mxCell id="6gXKYLrJOY6lN22b_xAF-62" value="EXE" style="rounded=0;whiteSpace=wrap;html=1;fillColor=#d5e8d4;strokeColor=#82b366;" vertex="1" parent="1">
          <mxGeometry x="1080" y="550" width="30" height="25" as="geometry" />
        </mxCell>
        <mxCell id="6gXKYLrJOY6lN22b_xAF-63" value="MEM" style="rounded=0;whiteSpace=wrap;html=1;fillColor=#e1d5e7;strokeColor=#9673a6;" vertex="1" parent="1">
          <mxGeometry x="1120" y="550" width="30" height="25" as="geometry" />
        </mxCell>
        <mxCell id="6gXKYLrJOY6lN22b_xAF-64" value="WB" style="rounded=0;whiteSpace=wrap;html=1;fillColor=#bac8d3;strokeColor=#23445d;" vertex="1" parent="1">
          <mxGeometry x="1160" y="550" width="30" height="25" as="geometry" />
        </mxCell>
        <mxCell id="6gXKYLrJOY6lN22b_xAF-65" value="IF" style="rounded=0;whiteSpace=wrap;html=1;fillColor=#ffe6cc;strokeColor=#d79b00;" vertex="1" parent="1">
          <mxGeometry x="960" y="590" width="30" height="25" as="geometry" />
        </mxCell>
        <mxCell id="6gXKYLrJOY6lN22b_xAF-66" value="ID" style="rounded=0;whiteSpace=wrap;html=1;fillColor=#dae8fc;strokeColor=#6c8ebf;" vertex="1" parent="1">
          <mxGeometry x="1080" y="590" width="30" height="25" as="geometry" />
        </mxCell>
        <mxCell id="6gXKYLrJOY6lN22b_xAF-67" value="EXE" style="rounded=0;whiteSpace=wrap;html=1;fillColor=#d5e8d4;strokeColor=#82b366;" vertex="1" parent="1">
          <mxGeometry x="1160" y="590" width="30" height="25" as="geometry" />
        </mxCell>
        <mxCell id="6gXKYLrJOY6lN22b_xAF-68" value="MEM" style="rounded=0;whiteSpace=wrap;html=1;fillColor=#e1d5e7;strokeColor=#9673a6;" vertex="1" parent="1">
          <mxGeometry x="1200" y="590" width="30" height="25" as="geometry" />
        </mxCell>
        <mxCell id="6gXKYLrJOY6lN22b_xAF-69" value="WB" style="rounded=0;whiteSpace=wrap;html=1;fillColor=#bac8d3;strokeColor=#23445d;" vertex="1" parent="1">
          <mxGeometry x="1240" y="590" width="30" height="25" as="geometry" />
        </mxCell>
        <mxCell id="6gXKYLrJOY6lN22b_xAF-70" value="IF" style="rounded=0;whiteSpace=wrap;html=1;fillColor=#ffe6cc;strokeColor=#d79b00;" vertex="1" parent="1">
          <mxGeometry x="1080" y="630" width="30" height="25" as="geometry" />
        </mxCell>
        <mxCell id="6gXKYLrJOY6lN22b_xAF-71" value="ID" style="rounded=0;whiteSpace=wrap;html=1;fillColor=#dae8fc;strokeColor=#6c8ebf;" vertex="1" parent="1">
          <mxGeometry x="1160" y="630" width="30" height="25" as="geometry" />
        </mxCell>
        <mxCell id="6gXKYLrJOY6lN22b_xAF-72" value="EXE" style="rounded=0;whiteSpace=wrap;html=1;fillColor=#d5e8d4;strokeColor=#82b366;" vertex="1" parent="1">
          <mxGeometry x="1200" y="630" width="30" height="25" as="geometry" />
        </mxCell>
        <mxCell id="6gXKYLrJOY6lN22b_xAF-73" value="MEM" style="rounded=0;whiteSpace=wrap;html=1;fillColor=#e1d5e7;strokeColor=#9673a6;" vertex="1" parent="1">
          <mxGeometry x="1240" y="630" width="30" height="25" as="geometry" />
        </mxCell>
        <mxCell id="6gXKYLrJOY6lN22b_xAF-74" value="WB" style="rounded=0;whiteSpace=wrap;html=1;fillColor=#bac8d3;strokeColor=#23445d;" vertex="1" parent="1">
          <mxGeometry x="1280" y="630" width="30" height="25" as="geometry" />
        </mxCell>
      </root>
    </mxGraphModel>
  </diagram>
  <diagram id="Hi36AaDYJD-tKn2E7DkY" name="scalar_first">
    <mxGraphModel dx="1195" dy="733" grid="1" gridSize="10" guides="1" tooltips="1" connect="1" arrows="1" fold="1" page="1" pageScale="1" pageWidth="4681" pageHeight="3300" math="0" shadow="0">
      <root>
        <mxCell id="0" />
        <mxCell id="1" parent="0" />
        <mxCell id="_pIJCPr1C9-WlfNhJ_9V-1" value="fld" style="text;html=1;strokeColor=none;fillColor=none;align=center;verticalAlign=middle;whiteSpace=wrap;rounded=0;" vertex="1" parent="1">
          <mxGeometry x="320" y="250" width="60" height="30" as="geometry" />
        </mxCell>
        <mxCell id="_pIJCPr1C9-WlfNhJ_9V-2" value="fmul" style="text;html=1;strokeColor=none;fillColor=none;align=center;verticalAlign=middle;whiteSpace=wrap;rounded=0;" vertex="1" parent="1">
          <mxGeometry x="320" y="290" width="60" height="30" as="geometry" />
        </mxCell>
        <mxCell id="_pIJCPr1C9-WlfNhJ_9V-3" value="fld" style="text;html=1;strokeColor=none;fillColor=none;align=center;verticalAlign=middle;whiteSpace=wrap;rounded=0;" vertex="1" parent="1">
          <mxGeometry x="320" y="330" width="60" height="30" as="geometry" />
        </mxCell>
        <mxCell id="_pIJCPr1C9-WlfNhJ_9V-4" value="fadd" style="text;html=1;strokeColor=none;fillColor=none;align=center;verticalAlign=middle;whiteSpace=wrap;rounded=0;" vertex="1" parent="1">
          <mxGeometry x="320" y="370" width="60" height="30" as="geometry" />
        </mxCell>
        <mxCell id="_pIJCPr1C9-WlfNhJ_9V-5" value="fst" style="text;html=1;strokeColor=none;fillColor=none;align=center;verticalAlign=middle;whiteSpace=wrap;rounded=0;" vertex="1" parent="1">
          <mxGeometry x="320" y="407.5" width="60" height="30" as="geometry" />
        </mxCell>
        <mxCell id="_pIJCPr1C9-WlfNhJ_9V-7" value="ID" style="rounded=0;whiteSpace=wrap;html=1;fillColor=#dae8fc;strokeColor=#6c8ebf;" vertex="1" parent="1">
          <mxGeometry x="420" y="252.5" width="30" height="25" as="geometry" />
        </mxCell>
        <mxCell id="_pIJCPr1C9-WlfNhJ_9V-9" value="MEM" style="rounded=0;whiteSpace=wrap;html=1;fillColor=#e1d5e7;strokeColor=#9673a6;" vertex="1" parent="1">
          <mxGeometry x="620" y="252.5" width="30" height="25" as="geometry" />
        </mxCell>
        <mxCell id="_pIJCPr1C9-WlfNhJ_9V-11" value="IF" style="rounded=0;whiteSpace=wrap;html=1;fillColor=#ffe6cc;strokeColor=#d79b00;" vertex="1" parent="1">
          <mxGeometry x="380" y="252.5" width="30" height="25" as="geometry" />
        </mxCell>
        <mxCell id="_pIJCPr1C9-WlfNhJ_9V-13" value="EXE" style="rounded=0;whiteSpace=wrap;html=1;fillColor=#d5e8d4;strokeColor=#82b366;" vertex="1" parent="1">
          <mxGeometry x="460" y="252.5" width="30" height="25" as="geometry" />
        </mxCell>
        <mxCell id="_pIJCPr1C9-WlfNhJ_9V-14" value="MEM" style="rounded=0;whiteSpace=wrap;html=1;fillColor=#e1d5e7;strokeColor=#9673a6;" vertex="1" parent="1">
          <mxGeometry x="500" y="252.5" width="30" height="25" as="geometry" />
        </mxCell>
        <mxCell id="_pIJCPr1C9-WlfNhJ_9V-15" value="MEM" style="rounded=0;whiteSpace=wrap;html=1;fillColor=#e1d5e7;strokeColor=#9673a6;" vertex="1" parent="1">
          <mxGeometry x="540" y="252.5" width="30" height="25" as="geometry" />
        </mxCell>
        <mxCell id="_pIJCPr1C9-WlfNhJ_9V-16" value="MEM" style="rounded=0;whiteSpace=wrap;html=1;fillColor=#e1d5e7;strokeColor=#9673a6;" vertex="1" parent="1">
          <mxGeometry x="580" y="252.5" width="30" height="25" as="geometry" />
        </mxCell>
        <mxCell id="_pIJCPr1C9-WlfNhJ_9V-17" value="WB" style="rounded=0;whiteSpace=wrap;html=1;fillColor=#bac8d3;strokeColor=#23445d;" vertex="1" parent="1">
          <mxGeometry x="660" y="252.5" width="30" height="25" as="geometry" />
        </mxCell>
        <mxCell id="_pIJCPr1C9-WlfNhJ_9V-18" value="IF" style="rounded=0;whiteSpace=wrap;html=1;fillColor=#ffe6cc;strokeColor=#d79b00;" vertex="1" parent="1">
          <mxGeometry x="420" y="290" width="30" height="25" as="geometry" />
        </mxCell>
        <mxCell id="_pIJCPr1C9-WlfNhJ_9V-19" value="ID" style="rounded=0;whiteSpace=wrap;html=1;fillColor=#dae8fc;strokeColor=#6c8ebf;" vertex="1" parent="1">
          <mxGeometry x="460" y="290" width="30" height="25" as="geometry" />
        </mxCell>
        <mxCell id="_pIJCPr1C9-WlfNhJ_9V-20" value="EXE" style="rounded=0;whiteSpace=wrap;html=1;fillColor=#d5e8d4;strokeColor=#82b366;" vertex="1" parent="1">
          <mxGeometry x="660" y="290" width="30" height="25" as="geometry" />
        </mxCell>
        <mxCell id="_pIJCPr1C9-WlfNhJ_9V-21" value="EXE" style="rounded=0;whiteSpace=wrap;html=1;fillColor=#d5e8d4;strokeColor=#82b366;" vertex="1" parent="1">
          <mxGeometry x="700" y="290" width="30" height="25" as="geometry" />
        </mxCell>
        <mxCell id="_pIJCPr1C9-WlfNhJ_9V-22" value="EXE" style="rounded=0;whiteSpace=wrap;html=1;fillColor=#d5e8d4;strokeColor=#82b366;" vertex="1" parent="1">
          <mxGeometry x="740" y="290" width="30" height="25" as="geometry" />
        </mxCell>
        <mxCell id="_pIJCPr1C9-WlfNhJ_9V-23" value="MEM" style="rounded=0;whiteSpace=wrap;html=1;fillColor=#e1d5e7;strokeColor=#9673a6;" vertex="1" parent="1">
          <mxGeometry x="780" y="290" width="30" height="25" as="geometry" />
        </mxCell>
        <mxCell id="_pIJCPr1C9-WlfNhJ_9V-24" value="WB" style="rounded=0;whiteSpace=wrap;html=1;fillColor=#bac8d3;strokeColor=#23445d;" vertex="1" parent="1">
          <mxGeometry x="820" y="290" width="30" height="25" as="geometry" />
        </mxCell>
        <mxCell id="_pIJCPr1C9-WlfNhJ_9V-25" value="IF" style="rounded=0;whiteSpace=wrap;html=1;fillColor=#ffe6cc;strokeColor=#d79b00;" vertex="1" parent="1">
          <mxGeometry x="460" y="330" width="30" height="25" as="geometry" />
        </mxCell>
        <mxCell id="_pIJCPr1C9-WlfNhJ_9V-26" value="ID" style="rounded=0;whiteSpace=wrap;html=1;fillColor=#dae8fc;strokeColor=#6c8ebf;" vertex="1" parent="1">
          <mxGeometry x="660" y="330" width="30" height="25" as="geometry" />
        </mxCell>
        <mxCell id="_pIJCPr1C9-WlfNhJ_9V-27" value="EXE" style="rounded=0;whiteSpace=wrap;html=1;fillColor=#d5e8d4;strokeColor=#82b366;" vertex="1" parent="1">
          <mxGeometry x="780" y="330" width="30" height="25" as="geometry" />
        </mxCell>
        <mxCell id="_pIJCPr1C9-WlfNhJ_9V-28" value="MEM" style="rounded=0;whiteSpace=wrap;html=1;fillColor=#e1d5e7;strokeColor=#9673a6;" vertex="1" parent="1">
          <mxGeometry x="940" y="330" width="30" height="25" as="geometry" />
        </mxCell>
        <mxCell id="_pIJCPr1C9-WlfNhJ_9V-29" value="MEM" style="rounded=0;whiteSpace=wrap;html=1;fillColor=#e1d5e7;strokeColor=#9673a6;" vertex="1" parent="1">
          <mxGeometry x="820" y="330" width="30" height="25" as="geometry" />
        </mxCell>
        <mxCell id="_pIJCPr1C9-WlfNhJ_9V-30" value="MEM" style="rounded=0;whiteSpace=wrap;html=1;fillColor=#e1d5e7;strokeColor=#9673a6;" vertex="1" parent="1">
          <mxGeometry x="860" y="330" width="30" height="25" as="geometry" />
        </mxCell>
        <mxCell id="_pIJCPr1C9-WlfNhJ_9V-31" value="MEM" style="rounded=0;whiteSpace=wrap;html=1;fillColor=#e1d5e7;strokeColor=#9673a6;" vertex="1" parent="1">
          <mxGeometry x="900" y="330" width="30" height="25" as="geometry" />
        </mxCell>
        <mxCell id="_pIJCPr1C9-WlfNhJ_9V-32" value="WB" style="rounded=0;whiteSpace=wrap;html=1;fillColor=#bac8d3;strokeColor=#23445d;" vertex="1" parent="1">
          <mxGeometry x="980" y="330" width="30" height="25" as="geometry" />
        </mxCell>
        <mxCell id="_pIJCPr1C9-WlfNhJ_9V-33" value="IF" style="rounded=0;whiteSpace=wrap;html=1;fillColor=#ffe6cc;strokeColor=#d79b00;" vertex="1" parent="1">
          <mxGeometry x="660" y="370" width="30" height="25" as="geometry" />
        </mxCell>
        <mxCell id="_pIJCPr1C9-WlfNhJ_9V-34" value="ID" style="rounded=0;whiteSpace=wrap;html=1;fillColor=#dae8fc;strokeColor=#6c8ebf;" vertex="1" parent="1">
          <mxGeometry x="780" y="370" width="30" height="25" as="geometry" />
        </mxCell>
        <mxCell id="_pIJCPr1C9-WlfNhJ_9V-35" value="EXE" style="rounded=0;whiteSpace=wrap;html=1;fillColor=#d5e8d4;strokeColor=#82b366;" vertex="1" parent="1">
          <mxGeometry x="980" y="370" width="30" height="25" as="geometry" />
        </mxCell>
        <mxCell id="_pIJCPr1C9-WlfNhJ_9V-36" value="MEM" style="rounded=0;whiteSpace=wrap;html=1;fillColor=#e1d5e7;strokeColor=#9673a6;" vertex="1" parent="1">
          <mxGeometry x="1020" y="370" width="30" height="25" as="geometry" />
        </mxCell>
        <mxCell id="_pIJCPr1C9-WlfNhJ_9V-37" value="WB" style="rounded=0;whiteSpace=wrap;html=1;fillColor=#bac8d3;strokeColor=#23445d;" vertex="1" parent="1">
          <mxGeometry x="1060" y="370" width="30" height="25" as="geometry" />
        </mxCell>
        <mxCell id="_pIJCPr1C9-WlfNhJ_9V-38" value="IF" style="rounded=0;whiteSpace=wrap;html=1;fillColor=#ffe6cc;strokeColor=#d79b00;" vertex="1" parent="1">
          <mxGeometry x="780" y="410" width="30" height="25" as="geometry" />
        </mxCell>
        <mxCell id="_pIJCPr1C9-WlfNhJ_9V-39" value="ID" style="rounded=0;whiteSpace=wrap;html=1;fillColor=#dae8fc;strokeColor=#6c8ebf;" vertex="1" parent="1">
          <mxGeometry x="980" y="410" width="30" height="25" as="geometry" />
        </mxCell>
        <mxCell id="_pIJCPr1C9-WlfNhJ_9V-40" value="EXE" style="rounded=0;whiteSpace=wrap;html=1;fillColor=#d5e8d4;strokeColor=#82b366;" vertex="1" parent="1">
          <mxGeometry x="1020" y="410" width="30" height="25" as="geometry" />
        </mxCell>
        <mxCell id="_pIJCPr1C9-WlfNhJ_9V-41" value="MEM" style="rounded=0;whiteSpace=wrap;html=1;fillColor=#e1d5e7;strokeColor=#9673a6;" vertex="1" parent="1">
          <mxGeometry x="1060" y="410" width="30" height="25" as="geometry" />
        </mxCell>
        <mxCell id="_pIJCPr1C9-WlfNhJ_9V-42" value="WB" style="rounded=0;whiteSpace=wrap;html=1;fillColor=#bac8d3;strokeColor=#23445d;" vertex="1" parent="1">
          <mxGeometry x="1100" y="410" width="30" height="25" as="geometry" />
        </mxCell>
        <mxCell id="_pIJCPr1C9-WlfNhJ_9V-63" value="" style="group" vertex="1" connectable="0" parent="1">
          <mxGeometry x="480" y="610" width="570" height="25" as="geometry" />
        </mxCell>
        <mxCell id="_pIJCPr1C9-WlfNhJ_9V-43" value="IF" style="rounded=0;whiteSpace=wrap;html=1;fillColor=#ffe6cc;strokeColor=#d79b00;container=0;" vertex="1" parent="_pIJCPr1C9-WlfNhJ_9V-63">
          <mxGeometry width="30" height="25" as="geometry" />
        </mxCell>
        <mxCell id="_pIJCPr1C9-WlfNhJ_9V-44" value="ID" style="rounded=0;whiteSpace=wrap;html=1;fillColor=#dae8fc;strokeColor=#6c8ebf;container=0;" vertex="1" parent="_pIJCPr1C9-WlfNhJ_9V-63">
          <mxGeometry x="30" width="30" height="25" as="geometry" />
        </mxCell>
        <mxCell id="_pIJCPr1C9-WlfNhJ_9V-45" value="EXE" style="rounded=0;whiteSpace=wrap;html=1;fillColor=#d5e8d4;strokeColor=#82b366;container=0;" vertex="1" parent="_pIJCPr1C9-WlfNhJ_9V-63">
          <mxGeometry x="60" width="30" height="25" as="geometry" />
        </mxCell>
        <mxCell id="_pIJCPr1C9-WlfNhJ_9V-46" value="MEM" style="rounded=0;whiteSpace=wrap;html=1;fillColor=#e1d5e7;strokeColor=#9673a6;container=0;" vertex="1" parent="_pIJCPr1C9-WlfNhJ_9V-63">
          <mxGeometry x="180" width="30" height="25" as="geometry" />
        </mxCell>
        <mxCell id="_pIJCPr1C9-WlfNhJ_9V-47" value="MEM" style="rounded=0;whiteSpace=wrap;html=1;fillColor=#e1d5e7;strokeColor=#9673a6;container=0;" vertex="1" parent="_pIJCPr1C9-WlfNhJ_9V-63">
          <mxGeometry x="90" width="30" height="25" as="geometry" />
        </mxCell>
        <mxCell id="_pIJCPr1C9-WlfNhJ_9V-48" value="MEM" style="rounded=0;whiteSpace=wrap;html=1;fillColor=#e1d5e7;strokeColor=#9673a6;container=0;" vertex="1" parent="_pIJCPr1C9-WlfNhJ_9V-63">
          <mxGeometry x="120" width="30" height="25" as="geometry" />
        </mxCell>
        <mxCell id="_pIJCPr1C9-WlfNhJ_9V-49" value="MEM" style="rounded=0;whiteSpace=wrap;html=1;fillColor=#e1d5e7;strokeColor=#9673a6;container=0;" vertex="1" parent="_pIJCPr1C9-WlfNhJ_9V-63">
          <mxGeometry x="150" width="30" height="25" as="geometry" />
        </mxCell>
        <mxCell id="_pIJCPr1C9-WlfNhJ_9V-50" value="EXE" style="rounded=0;whiteSpace=wrap;html=1;fillColor=#d5e8d4;strokeColor=#82b366;container=0;" vertex="1" parent="_pIJCPr1C9-WlfNhJ_9V-63">
          <mxGeometry x="210" width="30" height="25" as="geometry" />
        </mxCell>
        <mxCell id="_pIJCPr1C9-WlfNhJ_9V-51" value="EXE" style="rounded=0;whiteSpace=wrap;html=1;fillColor=#d5e8d4;strokeColor=#82b366;container=0;" vertex="1" parent="_pIJCPr1C9-WlfNhJ_9V-63">
          <mxGeometry x="240" width="30" height="25" as="geometry" />
        </mxCell>
        <mxCell id="_pIJCPr1C9-WlfNhJ_9V-52" value="EXE" style="rounded=0;whiteSpace=wrap;html=1;fillColor=#d5e8d4;strokeColor=#82b366;container=0;" vertex="1" parent="_pIJCPr1C9-WlfNhJ_9V-63">
          <mxGeometry x="270" width="30" height="25" as="geometry" />
        </mxCell>
        <mxCell id="_pIJCPr1C9-WlfNhJ_9V-53" value="EXE" style="rounded=0;whiteSpace=wrap;html=1;fillColor=#d5e8d4;strokeColor=#82b366;container=0;" vertex="1" parent="_pIJCPr1C9-WlfNhJ_9V-63">
          <mxGeometry x="300" width="30" height="25" as="geometry" />
        </mxCell>
        <mxCell id="_pIJCPr1C9-WlfNhJ_9V-54" value="MEM" style="rounded=0;whiteSpace=wrap;html=1;fillColor=#e1d5e7;strokeColor=#9673a6;container=0;" vertex="1" parent="_pIJCPr1C9-WlfNhJ_9V-63">
          <mxGeometry x="420" width="30" height="25" as="geometry" />
        </mxCell>
        <mxCell id="_pIJCPr1C9-WlfNhJ_9V-55" value="MEM" style="rounded=0;whiteSpace=wrap;html=1;fillColor=#e1d5e7;strokeColor=#9673a6;container=0;" vertex="1" parent="_pIJCPr1C9-WlfNhJ_9V-63">
          <mxGeometry x="330" width="30" height="25" as="geometry" />
        </mxCell>
        <mxCell id="_pIJCPr1C9-WlfNhJ_9V-56" value="MEM" style="rounded=0;whiteSpace=wrap;html=1;fillColor=#e1d5e7;strokeColor=#9673a6;container=0;" vertex="1" parent="_pIJCPr1C9-WlfNhJ_9V-63">
          <mxGeometry x="360" width="30" height="25" as="geometry" />
        </mxCell>
        <mxCell id="_pIJCPr1C9-WlfNhJ_9V-57" value="MEM" style="rounded=0;whiteSpace=wrap;html=1;fillColor=#e1d5e7;strokeColor=#9673a6;container=0;" vertex="1" parent="_pIJCPr1C9-WlfNhJ_9V-63">
          <mxGeometry x="390" width="30" height="25" as="geometry" />
        </mxCell>
        <mxCell id="_pIJCPr1C9-WlfNhJ_9V-58" value="ID" style="rounded=0;whiteSpace=wrap;html=1;fillColor=#dae8fc;strokeColor=#6c8ebf;container=0;" vertex="1" parent="_pIJCPr1C9-WlfNhJ_9V-63">
          <mxGeometry x="450" width="30" height="25" as="geometry" />
        </mxCell>
        <mxCell id="_pIJCPr1C9-WlfNhJ_9V-59" value="EXE" style="rounded=0;whiteSpace=wrap;html=1;fillColor=#d5e8d4;strokeColor=#82b366;container=0;" vertex="1" parent="_pIJCPr1C9-WlfNhJ_9V-63">
          <mxGeometry x="480" width="30" height="25" as="geometry" />
        </mxCell>
        <mxCell id="_pIJCPr1C9-WlfNhJ_9V-60" value="MEM" style="rounded=0;whiteSpace=wrap;html=1;fillColor=#e1d5e7;strokeColor=#9673a6;container=0;" vertex="1" parent="_pIJCPr1C9-WlfNhJ_9V-63">
          <mxGeometry x="510" width="30" height="25" as="geometry" />
        </mxCell>
        <mxCell id="_pIJCPr1C9-WlfNhJ_9V-61" value="WB" style="rounded=0;whiteSpace=wrap;html=1;fillColor=#bac8d3;strokeColor=#23445d;container=0;" vertex="1" parent="_pIJCPr1C9-WlfNhJ_9V-63">
          <mxGeometry x="540" width="30" height="25" as="geometry" />
        </mxCell>
        <mxCell id="_pIJCPr1C9-WlfNhJ_9V-65" value="" style="shape=flexArrow;endArrow=classic;html=1;rounded=0;strokeWidth=2;" edge="1" parent="1">
          <mxGeometry width="50" height="50" relative="1" as="geometry">
            <mxPoint x="760" y="480" as="sourcePoint" />
            <mxPoint x="760" y="570" as="targetPoint" />
          </mxGeometry>
        </mxCell>
        <mxCell id="_pIJCPr1C9-WlfNhJ_9V-67" value="" style="shape=curlyBracket;whiteSpace=wrap;html=1;rounded=1;flipH=1;labelPosition=right;verticalLabelPosition=middle;align=left;verticalAlign=middle;rotation=90;" vertex="1" parent="1">
          <mxGeometry x="620" y="590" width="20" height="120" as="geometry" />
        </mxCell>
        <mxCell id="_pIJCPr1C9-WlfNhJ_9V-68" value="" style="shape=curlyBracket;whiteSpace=wrap;html=1;rounded=1;flipH=1;labelPosition=right;verticalLabelPosition=middle;align=left;verticalAlign=middle;rotation=90;" vertex="1" parent="1">
          <mxGeometry x="725" y="605" width="20" height="90" as="geometry" />
        </mxCell>
        <mxCell id="_pIJCPr1C9-WlfNhJ_9V-69" value="" style="shape=curlyBracket;whiteSpace=wrap;html=1;rounded=1;flipH=1;labelPosition=right;verticalLabelPosition=middle;align=left;verticalAlign=middle;rotation=90;" vertex="1" parent="1">
          <mxGeometry x="860" y="590" width="20" height="120" as="geometry" />
        </mxCell>
        <mxCell id="_pIJCPr1C9-WlfNhJ_9V-70" value="fld" style="text;html=1;strokeColor=none;fillColor=none;align=center;verticalAlign=middle;whiteSpace=wrap;rounded=0;" vertex="1" parent="1">
          <mxGeometry x="600" y="665" width="60" height="30" as="geometry" />
        </mxCell>
        <mxCell id="_pIJCPr1C9-WlfNhJ_9V-71" value="fmul" style="text;html=1;strokeColor=none;fillColor=none;align=center;verticalAlign=middle;whiteSpace=wrap;rounded=0;" vertex="1" parent="1">
          <mxGeometry x="705" y="665" width="60" height="30" as="geometry" />
        </mxCell>
        <mxCell id="_pIJCPr1C9-WlfNhJ_9V-72" value="fld" style="text;html=1;strokeColor=none;fillColor=none;align=center;verticalAlign=middle;whiteSpace=wrap;rounded=0;" vertex="1" parent="1">
          <mxGeometry x="840" y="665" width="60" height="30" as="geometry" />
        </mxCell>
      </root>
    </mxGraphModel>
  </diagram>
  <diagram id="8k-fo502hRJcCMU8mlqR" name="scalar_second">
    <mxGraphModel dx="989" dy="607" grid="1" gridSize="10" guides="1" tooltips="1" connect="1" arrows="1" fold="1" page="1" pageScale="1" pageWidth="4681" pageHeight="3300" math="0" shadow="0">
      <root>
        <mxCell id="0" />
        <mxCell id="1" parent="0" />
        <mxCell id="3F1xaWXFAo8wiyek5gGy-1" value="fld" style="text;html=1;strokeColor=none;fillColor=none;align=center;verticalAlign=middle;whiteSpace=wrap;rounded=0;" vertex="1" parent="1">
          <mxGeometry x="460" y="100" width="60" height="30" as="geometry" />
        </mxCell>
        <mxCell id="3F1xaWXFAo8wiyek5gGy-2" value="fmul" style="text;html=1;strokeColor=none;fillColor=none;align=center;verticalAlign=middle;whiteSpace=wrap;rounded=0;" vertex="1" parent="1">
          <mxGeometry x="460" y="142.5" width="60" height="30" as="geometry" />
        </mxCell>
        <mxCell id="3F1xaWXFAo8wiyek5gGy-3" value="fld" style="text;html=1;strokeColor=none;fillColor=none;align=center;verticalAlign=middle;whiteSpace=wrap;rounded=0;" vertex="1" parent="1">
          <mxGeometry x="460" y="182.5" width="60" height="30" as="geometry" />
        </mxCell>
        <mxCell id="3F1xaWXFAo8wiyek5gGy-4" value="fadd" style="text;html=1;strokeColor=none;fillColor=none;align=center;verticalAlign=middle;whiteSpace=wrap;rounded=0;" vertex="1" parent="1">
          <mxGeometry x="460" y="222.5" width="60" height="30" as="geometry" />
        </mxCell>
        <mxCell id="3F1xaWXFAo8wiyek5gGy-5" value="fst" style="text;html=1;strokeColor=none;fillColor=none;align=center;verticalAlign=middle;whiteSpace=wrap;rounded=0;" vertex="1" parent="1">
          <mxGeometry x="460" y="262.5" width="60" height="30" as="geometry" />
        </mxCell>
        <mxCell id="3F1xaWXFAo8wiyek5gGy-6" value="IF" style="rounded=0;whiteSpace=wrap;html=1;fillColor=#ffe6cc;strokeColor=#d79b00;" vertex="1" parent="1">
          <mxGeometry x="520" y="105" width="30" height="25" as="geometry" />
        </mxCell>
        <mxCell id="3F1xaWXFAo8wiyek5gGy-7" value="ID" style="rounded=0;whiteSpace=wrap;html=1;fillColor=#dae8fc;strokeColor=#6c8ebf;" vertex="1" parent="1">
          <mxGeometry x="560" y="105" width="30" height="25" as="geometry" />
        </mxCell>
        <mxCell id="3F1xaWXFAo8wiyek5gGy-8" value="EXE" style="rounded=0;whiteSpace=wrap;html=1;fillColor=#d5e8d4;strokeColor=#82b366;" vertex="1" parent="1">
          <mxGeometry x="600" y="105" width="30" height="25" as="geometry" />
        </mxCell>
        <mxCell id="3F1xaWXFAo8wiyek5gGy-9" value="MEM" style="rounded=0;whiteSpace=wrap;html=1;fillColor=#e1d5e7;strokeColor=#9673a6;" vertex="1" parent="1">
          <mxGeometry x="640" y="105" width="30" height="25" as="geometry" />
        </mxCell>
        <mxCell id="3F1xaWXFAo8wiyek5gGy-10" value="WB" style="rounded=0;whiteSpace=wrap;html=1;fillColor=#bac8d3;strokeColor=#23445d;" vertex="1" parent="1">
          <mxGeometry x="680" y="105" width="30" height="25" as="geometry" />
        </mxCell>
        <mxCell id="3F1xaWXFAo8wiyek5gGy-11" value="IF" style="rounded=0;whiteSpace=wrap;html=1;fillColor=#ffe6cc;strokeColor=#d79b00;" vertex="1" parent="1">
          <mxGeometry x="560" y="145" width="30" height="25" as="geometry" />
        </mxCell>
        <mxCell id="3F1xaWXFAo8wiyek5gGy-12" value="ID" style="rounded=0;whiteSpace=wrap;html=1;fillColor=#dae8fc;strokeColor=#6c8ebf;" vertex="1" parent="1">
          <mxGeometry x="600" y="145" width="30" height="25" as="geometry" />
        </mxCell>
        <mxCell id="3F1xaWXFAo8wiyek5gGy-13" value="EXE" style="rounded=0;whiteSpace=wrap;html=1;fillColor=#d5e8d4;strokeColor=#82b366;" vertex="1" parent="1">
          <mxGeometry x="680" y="145" width="30" height="25" as="geometry" />
        </mxCell>
        <mxCell id="3F1xaWXFAo8wiyek5gGy-14" value="EXE" style="rounded=0;whiteSpace=wrap;html=1;fillColor=#d5e8d4;strokeColor=#82b366;" vertex="1" parent="1">
          <mxGeometry x="720" y="145" width="30" height="25" as="geometry" />
        </mxCell>
        <mxCell id="3F1xaWXFAo8wiyek5gGy-15" value="EXE" style="rounded=0;whiteSpace=wrap;html=1;fillColor=#d5e8d4;strokeColor=#82b366;" vertex="1" parent="1">
          <mxGeometry x="760" y="145" width="30" height="25" as="geometry" />
        </mxCell>
        <mxCell id="3F1xaWXFAo8wiyek5gGy-16" value="MEM" style="rounded=0;whiteSpace=wrap;html=1;fillColor=#e1d5e7;strokeColor=#9673a6;" vertex="1" parent="1">
          <mxGeometry x="800" y="145" width="30" height="25" as="geometry" />
        </mxCell>
        <mxCell id="3F1xaWXFAo8wiyek5gGy-17" value="WB" style="rounded=0;whiteSpace=wrap;html=1;fillColor=#bac8d3;strokeColor=#23445d;" vertex="1" parent="1">
          <mxGeometry x="840" y="145" width="30" height="25" as="geometry" />
        </mxCell>
        <mxCell id="3F1xaWXFAo8wiyek5gGy-18" value="IF" style="rounded=0;whiteSpace=wrap;html=1;fillColor=#ffe6cc;strokeColor=#d79b00;" vertex="1" parent="1">
          <mxGeometry x="600" y="185" width="30" height="25" as="geometry" />
        </mxCell>
        <mxCell id="3F1xaWXFAo8wiyek5gGy-19" value="ID" style="rounded=0;whiteSpace=wrap;html=1;fillColor=#dae8fc;strokeColor=#6c8ebf;" vertex="1" parent="1">
          <mxGeometry x="680" y="185" width="30" height="25" as="geometry" />
        </mxCell>
        <mxCell id="3F1xaWXFAo8wiyek5gGy-20" value="EXE" style="rounded=0;whiteSpace=wrap;html=1;fillColor=#d5e8d4;strokeColor=#82b366;" vertex="1" parent="1">
          <mxGeometry x="800" y="185" width="30" height="25" as="geometry" />
        </mxCell>
        <mxCell id="3F1xaWXFAo8wiyek5gGy-21" value="MEM" style="rounded=0;whiteSpace=wrap;html=1;fillColor=#e1d5e7;strokeColor=#9673a6;" vertex="1" parent="1">
          <mxGeometry x="840" y="185" width="30" height="25" as="geometry" />
        </mxCell>
        <mxCell id="3F1xaWXFAo8wiyek5gGy-22" value="WB" style="rounded=0;whiteSpace=wrap;html=1;fillColor=#bac8d3;strokeColor=#23445d;" vertex="1" parent="1">
          <mxGeometry x="880" y="185" width="30" height="25" as="geometry" />
        </mxCell>
        <mxCell id="3F1xaWXFAo8wiyek5gGy-23" value="IF" style="rounded=0;whiteSpace=wrap;html=1;fillColor=#ffe6cc;strokeColor=#d79b00;" vertex="1" parent="1">
          <mxGeometry x="680" y="225" width="30" height="25" as="geometry" />
        </mxCell>
        <mxCell id="3F1xaWXFAo8wiyek5gGy-24" value="ID" style="rounded=0;whiteSpace=wrap;html=1;fillColor=#dae8fc;strokeColor=#6c8ebf;" vertex="1" parent="1">
          <mxGeometry x="800" y="225" width="30" height="25" as="geometry" />
        </mxCell>
        <mxCell id="3F1xaWXFAo8wiyek5gGy-25" value="EXE" style="rounded=0;whiteSpace=wrap;html=1;fillColor=#d5e8d4;strokeColor=#82b366;" vertex="1" parent="1">
          <mxGeometry x="880" y="225" width="30" height="25" as="geometry" />
        </mxCell>
        <mxCell id="3F1xaWXFAo8wiyek5gGy-26" value="MEM" style="rounded=0;whiteSpace=wrap;html=1;fillColor=#e1d5e7;strokeColor=#9673a6;" vertex="1" parent="1">
          <mxGeometry x="920" y="225" width="30" height="25" as="geometry" />
        </mxCell>
        <mxCell id="3F1xaWXFAo8wiyek5gGy-27" value="WB" style="rounded=0;whiteSpace=wrap;html=1;fillColor=#bac8d3;strokeColor=#23445d;" vertex="1" parent="1">
          <mxGeometry x="960" y="225" width="30" height="25" as="geometry" />
        </mxCell>
        <mxCell id="3F1xaWXFAo8wiyek5gGy-28" value="IF" style="rounded=0;whiteSpace=wrap;html=1;fillColor=#ffe6cc;strokeColor=#d79b00;" vertex="1" parent="1">
          <mxGeometry x="800" y="265" width="30" height="25" as="geometry" />
        </mxCell>
        <mxCell id="3F1xaWXFAo8wiyek5gGy-29" value="ID" style="rounded=0;whiteSpace=wrap;html=1;fillColor=#dae8fc;strokeColor=#6c8ebf;" vertex="1" parent="1">
          <mxGeometry x="880" y="265" width="30" height="25" as="geometry" />
        </mxCell>
        <mxCell id="3F1xaWXFAo8wiyek5gGy-30" value="EXE" style="rounded=0;whiteSpace=wrap;html=1;fillColor=#d5e8d4;strokeColor=#82b366;" vertex="1" parent="1">
          <mxGeometry x="920" y="265" width="30" height="25" as="geometry" />
        </mxCell>
        <mxCell id="3F1xaWXFAo8wiyek5gGy-31" value="MEM" style="rounded=0;whiteSpace=wrap;html=1;fillColor=#e1d5e7;strokeColor=#9673a6;" vertex="1" parent="1">
          <mxGeometry x="960" y="265" width="30" height="25" as="geometry" />
        </mxCell>
        <mxCell id="3F1xaWXFAo8wiyek5gGy-32" value="WB" style="rounded=0;whiteSpace=wrap;html=1;fillColor=#bac8d3;strokeColor=#23445d;" vertex="1" parent="1">
          <mxGeometry x="1000" y="265" width="30" height="25" as="geometry" />
        </mxCell>
        <mxCell id="3F1xaWXFAo8wiyek5gGy-33" value="" style="shape=flexArrow;endArrow=classic;html=1;rounded=0;strokeWidth=2;" edge="1" parent="1">
          <mxGeometry width="50" height="50" relative="1" as="geometry">
            <mxPoint x="750" y="310" as="sourcePoint" />
            <mxPoint x="750" y="390" as="targetPoint" />
          </mxGeometry>
        </mxCell>
        <mxCell id="3F1xaWXFAo8wiyek5gGy-34" value="IF" style="rounded=0;whiteSpace=wrap;html=1;fillColor=#ffe6cc;strokeColor=#d79b00;" vertex="1" parent="1">
          <mxGeometry x="560" y="410" width="30" height="25" as="geometry" />
        </mxCell>
        <mxCell id="3F1xaWXFAo8wiyek5gGy-35" value="ID" style="rounded=0;whiteSpace=wrap;html=1;fillColor=#dae8fc;strokeColor=#6c8ebf;" vertex="1" parent="1">
          <mxGeometry x="590" y="410" width="30" height="25" as="geometry" />
        </mxCell>
        <mxCell id="3F1xaWXFAo8wiyek5gGy-36" value="EXE" style="rounded=0;whiteSpace=wrap;html=1;fillColor=#d5e8d4;strokeColor=#82b366;" vertex="1" parent="1">
          <mxGeometry x="620" y="410" width="30" height="25" as="geometry" />
        </mxCell>
        <mxCell id="3F1xaWXFAo8wiyek5gGy-37" value="MEM" style="rounded=0;whiteSpace=wrap;html=1;fillColor=#e1d5e7;strokeColor=#9673a6;" vertex="1" parent="1">
          <mxGeometry x="650" y="410" width="30" height="25" as="geometry" />
        </mxCell>
        <mxCell id="3F1xaWXFAo8wiyek5gGy-38" value="EXE" style="rounded=0;whiteSpace=wrap;html=1;fillColor=#d5e8d4;strokeColor=#82b366;" vertex="1" parent="1">
          <mxGeometry x="680" y="410" width="30" height="25" as="geometry" />
        </mxCell>
        <mxCell id="3F1xaWXFAo8wiyek5gGy-39" value="EXE" style="rounded=0;whiteSpace=wrap;html=1;fillColor=#d5e8d4;strokeColor=#82b366;" vertex="1" parent="1">
          <mxGeometry x="710" y="410" width="30" height="25" as="geometry" />
        </mxCell>
        <mxCell id="3F1xaWXFAo8wiyek5gGy-40" value="EXE" style="rounded=0;whiteSpace=wrap;html=1;fillColor=#d5e8d4;strokeColor=#82b366;" vertex="1" parent="1">
          <mxGeometry x="740" y="410" width="30" height="25" as="geometry" />
        </mxCell>
        <mxCell id="3F1xaWXFAo8wiyek5gGy-41" value="IF" style="rounded=0;whiteSpace=wrap;html=1;fillColor=#ffe6cc;strokeColor=#d79b00;" vertex="1" parent="1">
          <mxGeometry x="770" y="410" width="30" height="25" as="geometry" />
        </mxCell>
        <mxCell id="3F1xaWXFAo8wiyek5gGy-42" value="ID" style="rounded=0;whiteSpace=wrap;html=1;fillColor=#dae8fc;strokeColor=#6c8ebf;" vertex="1" parent="1">
          <mxGeometry x="830" y="410" width="30" height="25" as="geometry" />
        </mxCell>
        <mxCell id="3F1xaWXFAo8wiyek5gGy-43" value="EXE" style="rounded=0;whiteSpace=wrap;html=1;fillColor=#d5e8d4;strokeColor=#82b366;" vertex="1" parent="1">
          <mxGeometry x="860" y="410" width="30" height="25" as="geometry" />
        </mxCell>
        <mxCell id="3F1xaWXFAo8wiyek5gGy-44" value="MEM" style="rounded=0;whiteSpace=wrap;html=1;fillColor=#e1d5e7;strokeColor=#9673a6;" vertex="1" parent="1">
          <mxGeometry x="890" y="410" width="30" height="25" as="geometry" />
        </mxCell>
        <mxCell id="3F1xaWXFAo8wiyek5gGy-45" value="WB" style="rounded=0;whiteSpace=wrap;html=1;fillColor=#bac8d3;strokeColor=#23445d;" vertex="1" parent="1">
          <mxGeometry x="920" y="410" width="30" height="25" as="geometry" />
        </mxCell>
        <mxCell id="3F1xaWXFAo8wiyek5gGy-46" value="MEM" style="rounded=0;whiteSpace=wrap;html=1;fillColor=#e1d5e7;strokeColor=#9673a6;" vertex="1" parent="1">
          <mxGeometry x="800" y="410" width="30" height="25" as="geometry" />
        </mxCell>
        <mxCell id="3F1xaWXFAo8wiyek5gGy-48" value="" style="shape=curlyBracket;whiteSpace=wrap;html=1;rounded=1;labelPosition=left;verticalLabelPosition=middle;align=right;verticalAlign=middle;rotation=-90;" vertex="1" parent="1">
          <mxGeometry x="715" y="415" width="20" height="90" as="geometry" />
        </mxCell>
        <mxCell id="3F1xaWXFAo8wiyek5gGy-49" value="fmul" style="text;html=1;strokeColor=none;fillColor=none;align=center;verticalAlign=middle;whiteSpace=wrap;rounded=0;" vertex="1" parent="1">
          <mxGeometry x="695" y="475" width="60" height="30" as="geometry" />
        </mxCell>
      </root>
    </mxGraphModel>
  </diagram>
  <diagram id="FLqxxUl4VZ2FqN2g5ktF" name="scalar_time">
    <mxGraphModel dx="1434" dy="880" grid="1" gridSize="10" guides="1" tooltips="1" connect="1" arrows="1" fold="1" page="1" pageScale="1" pageWidth="4681" pageHeight="3300" math="0" shadow="0">
      <root>
        <mxCell id="0" />
        <mxCell id="1" parent="0" />
        <mxCell id="Ksy3xjRr2ETc7TMIHu-T-1" value="" style="group" vertex="1" connectable="0" parent="1">
          <mxGeometry x="210" y="250" width="570" height="25" as="geometry" />
        </mxCell>
        <mxCell id="Ksy3xjRr2ETc7TMIHu-T-2" value="IF" style="rounded=0;whiteSpace=wrap;html=1;fillColor=#ffe6cc;strokeColor=#d79b00;container=0;" vertex="1" parent="Ksy3xjRr2ETc7TMIHu-T-1">
          <mxGeometry width="30" height="25" as="geometry" />
        </mxCell>
        <mxCell id="Ksy3xjRr2ETc7TMIHu-T-3" value="ID" style="rounded=0;whiteSpace=wrap;html=1;fillColor=#dae8fc;strokeColor=#6c8ebf;container=0;" vertex="1" parent="Ksy3xjRr2ETc7TMIHu-T-1">
          <mxGeometry x="30" width="30" height="25" as="geometry" />
        </mxCell>
        <mxCell id="Ksy3xjRr2ETc7TMIHu-T-4" value="EXE" style="rounded=0;whiteSpace=wrap;html=1;fillColor=#d5e8d4;strokeColor=#82b366;container=0;" vertex="1" parent="Ksy3xjRr2ETc7TMIHu-T-1">
          <mxGeometry x="60" width="30" height="25" as="geometry" />
        </mxCell>
        <mxCell id="Ksy3xjRr2ETc7TMIHu-T-5" value="MEM" style="rounded=0;whiteSpace=wrap;html=1;fillColor=#e1d5e7;strokeColor=#9673a6;container=0;" vertex="1" parent="Ksy3xjRr2ETc7TMIHu-T-1">
          <mxGeometry x="180" width="30" height="25" as="geometry" />
        </mxCell>
        <mxCell id="Ksy3xjRr2ETc7TMIHu-T-6" value="MEM" style="rounded=0;whiteSpace=wrap;html=1;fillColor=#e1d5e7;strokeColor=#9673a6;container=0;" vertex="1" parent="Ksy3xjRr2ETc7TMIHu-T-1">
          <mxGeometry x="90" width="30" height="25" as="geometry" />
        </mxCell>
        <mxCell id="Ksy3xjRr2ETc7TMIHu-T-7" value="MEM" style="rounded=0;whiteSpace=wrap;html=1;fillColor=#e1d5e7;strokeColor=#9673a6;container=0;" vertex="1" parent="Ksy3xjRr2ETc7TMIHu-T-1">
          <mxGeometry x="120" width="30" height="25" as="geometry" />
        </mxCell>
        <mxCell id="Ksy3xjRr2ETc7TMIHu-T-8" value="MEM" style="rounded=0;whiteSpace=wrap;html=1;fillColor=#e1d5e7;strokeColor=#9673a6;container=0;" vertex="1" parent="Ksy3xjRr2ETc7TMIHu-T-1">
          <mxGeometry x="150" width="30" height="25" as="geometry" />
        </mxCell>
        <mxCell id="Ksy3xjRr2ETc7TMIHu-T-9" value="EXE" style="rounded=0;whiteSpace=wrap;html=1;fillColor=#d5e8d4;strokeColor=#82b366;container=0;" vertex="1" parent="Ksy3xjRr2ETc7TMIHu-T-1">
          <mxGeometry x="210" width="30" height="25" as="geometry" />
        </mxCell>
        <mxCell id="Ksy3xjRr2ETc7TMIHu-T-10" value="EXE" style="rounded=0;whiteSpace=wrap;html=1;fillColor=#d5e8d4;strokeColor=#82b366;container=0;" vertex="1" parent="Ksy3xjRr2ETc7TMIHu-T-1">
          <mxGeometry x="240" width="30" height="25" as="geometry" />
        </mxCell>
        <mxCell id="Ksy3xjRr2ETc7TMIHu-T-11" value="EXE" style="rounded=0;whiteSpace=wrap;html=1;fillColor=#d5e8d4;strokeColor=#82b366;container=0;" vertex="1" parent="Ksy3xjRr2ETc7TMIHu-T-1">
          <mxGeometry x="270" width="30" height="25" as="geometry" />
        </mxCell>
        <mxCell id="Ksy3xjRr2ETc7TMIHu-T-12" value="EXE" style="rounded=0;whiteSpace=wrap;html=1;fillColor=#d5e8d4;strokeColor=#82b366;container=0;" vertex="1" parent="Ksy3xjRr2ETc7TMIHu-T-1">
          <mxGeometry x="300" width="30" height="25" as="geometry" />
        </mxCell>
        <mxCell id="Ksy3xjRr2ETc7TMIHu-T-13" value="MEM" style="rounded=0;whiteSpace=wrap;html=1;fillColor=#e1d5e7;strokeColor=#9673a6;container=0;" vertex="1" parent="Ksy3xjRr2ETc7TMIHu-T-1">
          <mxGeometry x="420" width="30" height="25" as="geometry" />
        </mxCell>
        <mxCell id="Ksy3xjRr2ETc7TMIHu-T-14" value="MEM" style="rounded=0;whiteSpace=wrap;html=1;fillColor=#e1d5e7;strokeColor=#9673a6;container=0;" vertex="1" parent="Ksy3xjRr2ETc7TMIHu-T-1">
          <mxGeometry x="330" width="30" height="25" as="geometry" />
        </mxCell>
        <mxCell id="Ksy3xjRr2ETc7TMIHu-T-15" value="MEM" style="rounded=0;whiteSpace=wrap;html=1;fillColor=#e1d5e7;strokeColor=#9673a6;container=0;" vertex="1" parent="Ksy3xjRr2ETc7TMIHu-T-1">
          <mxGeometry x="360" width="30" height="25" as="geometry" />
        </mxCell>
        <mxCell id="Ksy3xjRr2ETc7TMIHu-T-16" value="MEM" style="rounded=0;whiteSpace=wrap;html=1;fillColor=#e1d5e7;strokeColor=#9673a6;container=0;" vertex="1" parent="Ksy3xjRr2ETc7TMIHu-T-1">
          <mxGeometry x="390" width="30" height="25" as="geometry" />
        </mxCell>
        <mxCell id="Ksy3xjRr2ETc7TMIHu-T-17" value="ID" style="rounded=0;whiteSpace=wrap;html=1;fillColor=#dae8fc;strokeColor=#6c8ebf;container=0;" vertex="1" parent="Ksy3xjRr2ETc7TMIHu-T-1">
          <mxGeometry x="450" width="30" height="25" as="geometry" />
        </mxCell>
        <mxCell id="Ksy3xjRr2ETc7TMIHu-T-18" value="EXE" style="rounded=0;whiteSpace=wrap;html=1;fillColor=#d5e8d4;strokeColor=#82b366;container=0;" vertex="1" parent="Ksy3xjRr2ETc7TMIHu-T-1">
          <mxGeometry x="480" width="30" height="25" as="geometry" />
        </mxCell>
        <mxCell id="Ksy3xjRr2ETc7TMIHu-T-19" value="MEM" style="rounded=0;whiteSpace=wrap;html=1;fillColor=#e1d5e7;strokeColor=#9673a6;container=0;" vertex="1" parent="Ksy3xjRr2ETc7TMIHu-T-1">
          <mxGeometry x="510" width="30" height="25" as="geometry" />
        </mxCell>
        <mxCell id="Ksy3xjRr2ETc7TMIHu-T-20" value="WB" style="rounded=0;whiteSpace=wrap;html=1;fillColor=#bac8d3;strokeColor=#23445d;container=0;" vertex="1" parent="Ksy3xjRr2ETc7TMIHu-T-1">
          <mxGeometry x="540" width="30" height="25" as="geometry" />
        </mxCell>
        <mxCell id="Y-oWeRi3XItvqM8yiRh6-1" value="IF" style="rounded=0;whiteSpace=wrap;html=1;fillColor=#ffe6cc;strokeColor=#d79b00;" vertex="1" parent="1">
          <mxGeometry x="750" y="280" width="30" height="25" as="geometry" />
        </mxCell>
        <mxCell id="Y-oWeRi3XItvqM8yiRh6-2" value="ID" style="rounded=0;whiteSpace=wrap;html=1;fillColor=#dae8fc;strokeColor=#6c8ebf;" vertex="1" parent="1">
          <mxGeometry x="780" y="280" width="30" height="25" as="geometry" />
        </mxCell>
        <mxCell id="Y-oWeRi3XItvqM8yiRh6-3" value="EXE" style="rounded=0;whiteSpace=wrap;html=1;fillColor=#d5e8d4;strokeColor=#82b366;" vertex="1" parent="1">
          <mxGeometry x="810" y="280" width="30" height="25" as="geometry" />
        </mxCell>
        <mxCell id="Y-oWeRi3XItvqM8yiRh6-4" value="MEM" style="rounded=0;whiteSpace=wrap;html=1;fillColor=#e1d5e7;strokeColor=#9673a6;" vertex="1" parent="1">
          <mxGeometry x="840" y="280" width="30" height="25" as="geometry" />
        </mxCell>
        <mxCell id="Y-oWeRi3XItvqM8yiRh6-5" value="EXE" style="rounded=0;whiteSpace=wrap;html=1;fillColor=#d5e8d4;strokeColor=#82b366;" vertex="1" parent="1">
          <mxGeometry x="870" y="280" width="30" height="25" as="geometry" />
        </mxCell>
        <mxCell id="Y-oWeRi3XItvqM8yiRh6-6" value="EXE" style="rounded=0;whiteSpace=wrap;html=1;fillColor=#d5e8d4;strokeColor=#82b366;" vertex="1" parent="1">
          <mxGeometry x="900" y="280" width="30" height="25" as="geometry" />
        </mxCell>
        <mxCell id="Y-oWeRi3XItvqM8yiRh6-7" value="EXE" style="rounded=0;whiteSpace=wrap;html=1;fillColor=#d5e8d4;strokeColor=#82b366;" vertex="1" parent="1">
          <mxGeometry x="930" y="280" width="30" height="25" as="geometry" />
        </mxCell>
        <mxCell id="Y-oWeRi3XItvqM8yiRh6-8" value="IF" style="rounded=0;whiteSpace=wrap;html=1;fillColor=#ffe6cc;strokeColor=#d79b00;" vertex="1" parent="1">
          <mxGeometry x="960" y="280" width="30" height="25" as="geometry" />
        </mxCell>
        <mxCell id="Y-oWeRi3XItvqM8yiRh6-9" value="ID" style="rounded=0;whiteSpace=wrap;html=1;fillColor=#dae8fc;strokeColor=#6c8ebf;" vertex="1" parent="1">
          <mxGeometry x="1020" y="280" width="30" height="25" as="geometry" />
        </mxCell>
        <mxCell id="Y-oWeRi3XItvqM8yiRh6-10" value="EXE" style="rounded=0;whiteSpace=wrap;html=1;fillColor=#d5e8d4;strokeColor=#82b366;" vertex="1" parent="1">
          <mxGeometry x="1050" y="280" width="30" height="25" as="geometry" />
        </mxCell>
        <mxCell id="Y-oWeRi3XItvqM8yiRh6-11" value="MEM" style="rounded=0;whiteSpace=wrap;html=1;fillColor=#e1d5e7;strokeColor=#9673a6;" vertex="1" parent="1">
          <mxGeometry x="1080" y="280" width="30" height="25" as="geometry" />
        </mxCell>
        <mxCell id="Y-oWeRi3XItvqM8yiRh6-12" value="WB" style="rounded=0;whiteSpace=wrap;html=1;fillColor=#bac8d3;strokeColor=#23445d;" vertex="1" parent="1">
          <mxGeometry x="1110" y="280" width="30" height="25" as="geometry" />
        </mxCell>
        <mxCell id="Y-oWeRi3XItvqM8yiRh6-13" value="MEM" style="rounded=0;whiteSpace=wrap;html=1;fillColor=#e1d5e7;strokeColor=#9673a6;" vertex="1" parent="1">
          <mxGeometry x="990" y="280" width="30" height="25" as="geometry" />
        </mxCell>
        <mxCell id="Y-oWeRi3XItvqM8yiRh6-14" value="IF" style="rounded=0;whiteSpace=wrap;html=1;fillColor=#ffe6cc;strokeColor=#d79b00;" vertex="1" parent="1">
          <mxGeometry x="1110" y="310" width="30" height="25" as="geometry" />
        </mxCell>
        <mxCell id="Y-oWeRi3XItvqM8yiRh6-15" value="ID" style="rounded=0;whiteSpace=wrap;html=1;fillColor=#dae8fc;strokeColor=#6c8ebf;" vertex="1" parent="1">
          <mxGeometry x="1140" y="310" width="30" height="25" as="geometry" />
        </mxCell>
        <mxCell id="Y-oWeRi3XItvqM8yiRh6-16" value="EXE" style="rounded=0;whiteSpace=wrap;html=1;fillColor=#d5e8d4;strokeColor=#82b366;" vertex="1" parent="1">
          <mxGeometry x="1170" y="310" width="30" height="25" as="geometry" />
        </mxCell>
        <mxCell id="Y-oWeRi3XItvqM8yiRh6-17" value="MEM" style="rounded=0;whiteSpace=wrap;html=1;fillColor=#e1d5e7;strokeColor=#9673a6;" vertex="1" parent="1">
          <mxGeometry x="1200" y="310" width="30" height="25" as="geometry" />
        </mxCell>
        <mxCell id="Y-oWeRi3XItvqM8yiRh6-18" value="EXE" style="rounded=0;whiteSpace=wrap;html=1;fillColor=#d5e8d4;strokeColor=#82b366;" vertex="1" parent="1">
          <mxGeometry x="1230" y="310" width="30" height="25" as="geometry" />
        </mxCell>
        <mxCell id="Y-oWeRi3XItvqM8yiRh6-19" value="EXE" style="rounded=0;whiteSpace=wrap;html=1;fillColor=#d5e8d4;strokeColor=#82b366;" vertex="1" parent="1">
          <mxGeometry x="1260" y="310" width="30" height="25" as="geometry" />
        </mxCell>
        <mxCell id="Y-oWeRi3XItvqM8yiRh6-20" value="EXE" style="rounded=0;whiteSpace=wrap;html=1;fillColor=#d5e8d4;strokeColor=#82b366;" vertex="1" parent="1">
          <mxGeometry x="1290" y="310" width="30" height="25" as="geometry" />
        </mxCell>
        <mxCell id="Y-oWeRi3XItvqM8yiRh6-21" value="IF" style="rounded=0;whiteSpace=wrap;html=1;fillColor=#ffe6cc;strokeColor=#d79b00;" vertex="1" parent="1">
          <mxGeometry x="1320" y="310" width="30" height="25" as="geometry" />
        </mxCell>
        <mxCell id="Y-oWeRi3XItvqM8yiRh6-22" value="ID" style="rounded=0;whiteSpace=wrap;html=1;fillColor=#dae8fc;strokeColor=#6c8ebf;" vertex="1" parent="1">
          <mxGeometry x="1380" y="310" width="30" height="25" as="geometry" />
        </mxCell>
        <mxCell id="Y-oWeRi3XItvqM8yiRh6-23" value="EXE" style="rounded=0;whiteSpace=wrap;html=1;fillColor=#d5e8d4;strokeColor=#82b366;" vertex="1" parent="1">
          <mxGeometry x="1410" y="310" width="30" height="25" as="geometry" />
        </mxCell>
        <mxCell id="Y-oWeRi3XItvqM8yiRh6-24" value="MEM" style="rounded=0;whiteSpace=wrap;html=1;fillColor=#e1d5e7;strokeColor=#9673a6;" vertex="1" parent="1">
          <mxGeometry x="1440" y="310" width="30" height="25" as="geometry" />
        </mxCell>
        <mxCell id="Y-oWeRi3XItvqM8yiRh6-25" value="WB" style="rounded=0;whiteSpace=wrap;html=1;fillColor=#bac8d3;strokeColor=#23445d;" vertex="1" parent="1">
          <mxGeometry x="1470" y="310" width="30" height="25" as="geometry" />
        </mxCell>
        <mxCell id="Y-oWeRi3XItvqM8yiRh6-26" value="MEM" style="rounded=0;whiteSpace=wrap;html=1;fillColor=#e1d5e7;strokeColor=#9673a6;" vertex="1" parent="1">
          <mxGeometry x="1350" y="310" width="30" height="25" as="geometry" />
        </mxCell>
        <mxCell id="Y-oWeRi3XItvqM8yiRh6-27" value="" style="shape=flexArrow;endArrow=classic;html=1;rounded=0;" edge="1" parent="1">
          <mxGeometry width="50" height="50" relative="1" as="geometry">
            <mxPoint x="899" y="360" as="sourcePoint" />
            <mxPoint x="899" y="430" as="targetPoint" />
          </mxGeometry>
        </mxCell>
        <mxCell id="Y-oWeRi3XItvqM8yiRh6-28" value="约等于" style="text;html=1;strokeColor=none;fillColor=none;align=center;verticalAlign=middle;whiteSpace=wrap;rounded=0;" vertex="1" parent="1">
          <mxGeometry x="915" y="370" width="60" height="30" as="geometry" />
        </mxCell>
        <mxCell id="Y-oWeRi3XItvqM8yiRh6-29" value="MEM" style="rounded=0;whiteSpace=wrap;html=1;fillColor=#e1d5e7;strokeColor=#9673a6;container=0;" vertex="1" parent="1">
          <mxGeometry x="645" y="490" width="30" height="25" as="geometry" />
        </mxCell>
        <mxCell id="Y-oWeRi3XItvqM8yiRh6-30" value="MEM" style="rounded=0;whiteSpace=wrap;html=1;fillColor=#e1d5e7;strokeColor=#9673a6;container=0;" vertex="1" parent="1">
          <mxGeometry x="555" y="490" width="30" height="25" as="geometry" />
        </mxCell>
        <mxCell id="Y-oWeRi3XItvqM8yiRh6-31" value="MEM" style="rounded=0;whiteSpace=wrap;html=1;fillColor=#e1d5e7;strokeColor=#9673a6;container=0;" vertex="1" parent="1">
          <mxGeometry x="585" y="490" width="30" height="25" as="geometry" />
        </mxCell>
        <mxCell id="Y-oWeRi3XItvqM8yiRh6-32" value="MEM" style="rounded=0;whiteSpace=wrap;html=1;fillColor=#e1d5e7;strokeColor=#9673a6;container=0;" vertex="1" parent="1">
          <mxGeometry x="615" y="490" width="30" height="25" as="geometry" />
        </mxCell>
        <mxCell id="Y-oWeRi3XItvqM8yiRh6-33" value="EXE" style="rounded=0;whiteSpace=wrap;html=1;fillColor=#d5e8d4;strokeColor=#82b366;container=0;" vertex="1" parent="1">
          <mxGeometry x="675" y="490" width="30" height="25" as="geometry" />
        </mxCell>
        <mxCell id="Y-oWeRi3XItvqM8yiRh6-34" value="EXE" style="rounded=0;whiteSpace=wrap;html=1;fillColor=#d5e8d4;strokeColor=#82b366;container=0;" vertex="1" parent="1">
          <mxGeometry x="705" y="490" width="30" height="25" as="geometry" />
        </mxCell>
        <mxCell id="Y-oWeRi3XItvqM8yiRh6-35" value="EXE" style="rounded=0;whiteSpace=wrap;html=1;fillColor=#d5e8d4;strokeColor=#82b366;container=0;" vertex="1" parent="1">
          <mxGeometry x="735" y="490" width="30" height="25" as="geometry" />
        </mxCell>
        <mxCell id="Y-oWeRi3XItvqM8yiRh6-36" value="EXE" style="rounded=0;whiteSpace=wrap;html=1;fillColor=#d5e8d4;strokeColor=#82b366;container=0;" vertex="1" parent="1">
          <mxGeometry x="765" y="490" width="30" height="25" as="geometry" />
        </mxCell>
        <mxCell id="Y-oWeRi3XItvqM8yiRh6-37" value="MEM" style="rounded=0;whiteSpace=wrap;html=1;fillColor=#e1d5e7;strokeColor=#9673a6;container=0;" vertex="1" parent="1">
          <mxGeometry x="885" y="490" width="30" height="25" as="geometry" />
        </mxCell>
        <mxCell id="Y-oWeRi3XItvqM8yiRh6-38" value="MEM" style="rounded=0;whiteSpace=wrap;html=1;fillColor=#e1d5e7;strokeColor=#9673a6;container=0;" vertex="1" parent="1">
          <mxGeometry x="795" y="490" width="30" height="25" as="geometry" />
        </mxCell>
        <mxCell id="Y-oWeRi3XItvqM8yiRh6-39" value="MEM" style="rounded=0;whiteSpace=wrap;html=1;fillColor=#e1d5e7;strokeColor=#9673a6;container=0;" vertex="1" parent="1">
          <mxGeometry x="825" y="490" width="30" height="25" as="geometry" />
        </mxCell>
        <mxCell id="Y-oWeRi3XItvqM8yiRh6-40" value="MEM" style="rounded=0;whiteSpace=wrap;html=1;fillColor=#e1d5e7;strokeColor=#9673a6;container=0;" vertex="1" parent="1">
          <mxGeometry x="855" y="490" width="30" height="25" as="geometry" />
        </mxCell>
        <mxCell id="Y-oWeRi3XItvqM8yiRh6-41" value="EXE" style="rounded=0;whiteSpace=wrap;html=1;fillColor=#d5e8d4;strokeColor=#82b366;" vertex="1" parent="1">
          <mxGeometry x="945" y="490" width="30" height="25" as="geometry" />
        </mxCell>
        <mxCell id="Y-oWeRi3XItvqM8yiRh6-42" value="EXE" style="rounded=0;whiteSpace=wrap;html=1;fillColor=#d5e8d4;strokeColor=#82b366;" vertex="1" parent="1">
          <mxGeometry x="975" y="490" width="30" height="25" as="geometry" />
        </mxCell>
        <mxCell id="Y-oWeRi3XItvqM8yiRh6-44" value="MEM" style="rounded=0;whiteSpace=wrap;html=1;fillColor=#e1d5e7;strokeColor=#9673a6;" vertex="1" parent="1">
          <mxGeometry x="1005" y="490" width="30" height="25" as="geometry" />
        </mxCell>
        <mxCell id="Y-oWeRi3XItvqM8yiRh6-45" value="EXE" style="rounded=0;whiteSpace=wrap;html=1;fillColor=#d5e8d4;strokeColor=#82b366;" vertex="1" parent="1">
          <mxGeometry x="915" y="490" width="30" height="25" as="geometry" />
        </mxCell>
        <mxCell id="Y-oWeRi3XItvqM8yiRh6-46" value="EXE" style="rounded=0;whiteSpace=wrap;html=1;fillColor=#d5e8d4;strokeColor=#82b366;" vertex="1" parent="1">
          <mxGeometry x="1065" y="490" width="30" height="25" as="geometry" />
        </mxCell>
        <mxCell id="Y-oWeRi3XItvqM8yiRh6-47" value="EXE" style="rounded=0;whiteSpace=wrap;html=1;fillColor=#d5e8d4;strokeColor=#82b366;" vertex="1" parent="1">
          <mxGeometry x="1095" y="490" width="30" height="25" as="geometry" />
        </mxCell>
        <mxCell id="Y-oWeRi3XItvqM8yiRh6-48" value="MEM" style="rounded=0;whiteSpace=wrap;html=1;fillColor=#e1d5e7;strokeColor=#9673a6;" vertex="1" parent="1">
          <mxGeometry x="1125" y="490" width="30" height="25" as="geometry" />
        </mxCell>
        <mxCell id="Y-oWeRi3XItvqM8yiRh6-49" value="EXE" style="rounded=0;whiteSpace=wrap;html=1;fillColor=#d5e8d4;strokeColor=#82b366;" vertex="1" parent="1">
          <mxGeometry x="1035" y="490" width="30" height="25" as="geometry" />
        </mxCell>
        <mxCell id="Y-oWeRi3XItvqM8yiRh6-54" value="EXE" style="rounded=0;whiteSpace=wrap;html=1;fillColor=#d5e8d4;strokeColor=#82b366;" vertex="1" parent="1">
          <mxGeometry x="1185" y="490" width="30" height="25" as="geometry" />
        </mxCell>
        <mxCell id="Y-oWeRi3XItvqM8yiRh6-55" value="EXE" style="rounded=0;whiteSpace=wrap;html=1;fillColor=#d5e8d4;strokeColor=#82b366;" vertex="1" parent="1">
          <mxGeometry x="1215" y="490" width="30" height="25" as="geometry" />
        </mxCell>
        <mxCell id="Y-oWeRi3XItvqM8yiRh6-56" value="MEM" style="rounded=0;whiteSpace=wrap;html=1;fillColor=#e1d5e7;strokeColor=#9673a6;" vertex="1" parent="1">
          <mxGeometry x="1245" y="490" width="30" height="25" as="geometry" />
        </mxCell>
        <mxCell id="Y-oWeRi3XItvqM8yiRh6-57" value="EXE" style="rounded=0;whiteSpace=wrap;html=1;fillColor=#d5e8d4;strokeColor=#82b366;" vertex="1" parent="1">
          <mxGeometry x="1155" y="490" width="30" height="25" as="geometry" />
        </mxCell>
        <mxCell id="Y-oWeRi3XItvqM8yiRh6-58" value="..." style="text;html=1;strokeColor=none;fillColor=none;align=center;verticalAlign=middle;whiteSpace=wrap;rounded=0;" vertex="1" parent="1">
          <mxGeometry x="1275" y="485" width="60" height="30" as="geometry" />
        </mxCell>
      </root>
    </mxGraphModel>
  </diagram>
  <diagram id="o9juzigIv5PVvMYHyk6X" name="vector_all">
    <mxGraphModel dx="1434" dy="880" grid="1" gridSize="10" guides="1" tooltips="1" connect="1" arrows="1" fold="1" page="1" pageScale="1" pageWidth="4681" pageHeight="3300" math="0" shadow="0">
      <root>
        <mxCell id="0" />
        <mxCell id="1" parent="0" />
        <mxCell id="Vrmo7h_9KylANDgEpbV6-1" value="vld" style="text;html=1;strokeColor=none;fillColor=none;align=center;verticalAlign=middle;whiteSpace=wrap;rounded=0;" vertex="1" parent="1">
          <mxGeometry x="50" y="1070" width="60" height="30" as="geometry" />
        </mxCell>
        <mxCell id="Vrmo7h_9KylANDgEpbV6-2" value="vmul" style="text;html=1;strokeColor=none;fillColor=none;align=center;verticalAlign=middle;whiteSpace=wrap;rounded=0;" vertex="1" parent="1">
          <mxGeometry x="50" y="1107.5" width="60" height="30" as="geometry" />
        </mxCell>
        <mxCell id="Vrmo7h_9KylANDgEpbV6-3" value="vld" style="text;html=1;strokeColor=none;fillColor=none;align=center;verticalAlign=middle;whiteSpace=wrap;rounded=0;" vertex="1" parent="1">
          <mxGeometry x="60" y="1447.5" width="60" height="30" as="geometry" />
        </mxCell>
        <mxCell id="Vrmo7h_9KylANDgEpbV6-4" value="vadd" style="text;html=1;strokeColor=none;fillColor=none;align=center;verticalAlign=middle;whiteSpace=wrap;rounded=0;" vertex="1" parent="1">
          <mxGeometry x="60" y="1487.5" width="60" height="30" as="geometry" />
        </mxCell>
        <mxCell id="Vrmo7h_9KylANDgEpbV6-11" value="IF" style="rounded=0;whiteSpace=wrap;html=1;fillColor=#ffe6cc;strokeColor=#d79b00;" vertex="1" parent="1">
          <mxGeometry x="250" y="220" width="30" height="25" as="geometry" />
        </mxCell>
        <mxCell id="Vrmo7h_9KylANDgEpbV6-12" value="ID" style="rounded=0;whiteSpace=wrap;html=1;fillColor=#dae8fc;strokeColor=#6c8ebf;" vertex="1" parent="1">
          <mxGeometry x="240" y="272.5" width="30" height="25" as="geometry" />
        </mxCell>
        <mxCell id="Vrmo7h_9KylANDgEpbV6-13" value="EXE" style="rounded=0;whiteSpace=wrap;html=1;fillColor=#d5e8d4;strokeColor=#82b366;" vertex="1" parent="1">
          <mxGeometry x="350" y="220" width="30" height="25" as="geometry" />
        </mxCell>
        <mxCell id="Vrmo7h_9KylANDgEpbV6-14" value="MEM" style="rounded=0;whiteSpace=wrap;html=1;fillColor=#e1d5e7;strokeColor=#9673a6;" vertex="1" parent="1">
          <mxGeometry x="440" y="272.5" width="30" height="25" as="geometry" />
        </mxCell>
        <mxCell id="Vrmo7h_9KylANDgEpbV6-15" value="WB" style="rounded=0;whiteSpace=wrap;html=1;fillColor=#bac8d3;strokeColor=#23445d;" vertex="1" parent="1">
          <mxGeometry x="450" y="220" width="30" height="25" as="geometry" />
        </mxCell>
        <mxCell id="Vrmo7h_9KylANDgEpbV6-16" value="IF" style="rounded=0;whiteSpace=wrap;html=1;fillColor=#ffe6cc;strokeColor=#d79b00;" vertex="1" parent="1">
          <mxGeometry x="200" y="272.5" width="30" height="25" as="geometry" />
        </mxCell>
        <mxCell id="Vrmo7h_9KylANDgEpbV6-17" value="ID" style="rounded=0;whiteSpace=wrap;html=1;fillColor=#dae8fc;strokeColor=#6c8ebf;" vertex="1" parent="1">
          <mxGeometry x="300" y="220" width="30" height="25" as="geometry" />
        </mxCell>
        <mxCell id="Vrmo7h_9KylANDgEpbV6-18" value="EXE" style="rounded=0;whiteSpace=wrap;html=1;fillColor=#d5e8d4;strokeColor=#82b366;" vertex="1" parent="1">
          <mxGeometry x="280" y="272.5" width="30" height="25" as="geometry" />
        </mxCell>
        <mxCell id="Vrmo7h_9KylANDgEpbV6-19" value="MEM" style="rounded=0;whiteSpace=wrap;html=1;fillColor=#e1d5e7;strokeColor=#9673a6;" vertex="1" parent="1">
          <mxGeometry x="320" y="272.5" width="30" height="25" as="geometry" />
        </mxCell>
        <mxCell id="Vrmo7h_9KylANDgEpbV6-20" value="MEM" style="rounded=0;whiteSpace=wrap;html=1;fillColor=#e1d5e7;strokeColor=#9673a6;" vertex="1" parent="1">
          <mxGeometry x="360" y="272.5" width="30" height="25" as="geometry" />
        </mxCell>
        <mxCell id="Vrmo7h_9KylANDgEpbV6-21" value="MEM" style="rounded=0;whiteSpace=wrap;html=1;fillColor=#e1d5e7;strokeColor=#9673a6;" vertex="1" parent="1">
          <mxGeometry x="400" y="272.5" width="30" height="25" as="geometry" />
        </mxCell>
        <mxCell id="Vrmo7h_9KylANDgEpbV6-22" value="WB" style="rounded=0;whiteSpace=wrap;html=1;fillColor=#bac8d3;strokeColor=#23445d;" vertex="1" parent="1">
          <mxGeometry x="480" y="272.5" width="30" height="25" as="geometry" />
        </mxCell>
        <mxCell id="Vrmo7h_9KylANDgEpbV6-23" value="IF" style="rounded=0;whiteSpace=wrap;html=1;fillColor=#ffe6cc;strokeColor=#d79b00;" vertex="1" parent="1">
          <mxGeometry x="240" y="310" width="30" height="25" as="geometry" />
        </mxCell>
        <mxCell id="Vrmo7h_9KylANDgEpbV6-24" value="ID" style="rounded=0;whiteSpace=wrap;html=1;fillColor=#dae8fc;strokeColor=#6c8ebf;" vertex="1" parent="1">
          <mxGeometry x="280" y="310" width="30" height="25" as="geometry" />
        </mxCell>
        <mxCell id="Vrmo7h_9KylANDgEpbV6-25" value="EXE" style="rounded=0;whiteSpace=wrap;html=1;fillColor=#d5e8d4;strokeColor=#82b366;" vertex="1" parent="1">
          <mxGeometry x="480" y="310" width="30" height="25" as="geometry" />
        </mxCell>
        <mxCell id="Vrmo7h_9KylANDgEpbV6-26" value="EXE" style="rounded=0;whiteSpace=wrap;html=1;fillColor=#d5e8d4;strokeColor=#82b366;" vertex="1" parent="1">
          <mxGeometry x="520" y="310" width="30" height="25" as="geometry" />
        </mxCell>
        <mxCell id="Vrmo7h_9KylANDgEpbV6-27" value="EXE" style="rounded=0;whiteSpace=wrap;html=1;fillColor=#d5e8d4;strokeColor=#82b366;" vertex="1" parent="1">
          <mxGeometry x="560" y="310" width="30" height="25" as="geometry" />
        </mxCell>
        <mxCell id="Vrmo7h_9KylANDgEpbV6-28" value="MEM" style="rounded=0;whiteSpace=wrap;html=1;fillColor=#e1d5e7;strokeColor=#9673a6;" vertex="1" parent="1">
          <mxGeometry x="600" y="310" width="30" height="25" as="geometry" />
        </mxCell>
        <mxCell id="Vrmo7h_9KylANDgEpbV6-29" value="WB" style="rounded=0;whiteSpace=wrap;html=1;fillColor=#bac8d3;strokeColor=#23445d;" vertex="1" parent="1">
          <mxGeometry x="640" y="310" width="30" height="25" as="geometry" />
        </mxCell>
        <mxCell id="Vrmo7h_9KylANDgEpbV6-30" value="IF" style="rounded=0;whiteSpace=wrap;html=1;fillColor=#ffe6cc;strokeColor=#d79b00;" vertex="1" parent="1">
          <mxGeometry x="280" y="350" width="30" height="25" as="geometry" />
        </mxCell>
        <mxCell id="Vrmo7h_9KylANDgEpbV6-31" value="ID" style="rounded=0;whiteSpace=wrap;html=1;fillColor=#dae8fc;strokeColor=#6c8ebf;" vertex="1" parent="1">
          <mxGeometry x="480" y="350" width="30" height="25" as="geometry" />
        </mxCell>
        <mxCell id="Vrmo7h_9KylANDgEpbV6-32" value="EXE" style="rounded=0;whiteSpace=wrap;html=1;fillColor=#d5e8d4;strokeColor=#82b366;" vertex="1" parent="1">
          <mxGeometry x="600" y="350" width="30" height="25" as="geometry" />
        </mxCell>
        <mxCell id="Vrmo7h_9KylANDgEpbV6-33" value="MEM" style="rounded=0;whiteSpace=wrap;html=1;fillColor=#e1d5e7;strokeColor=#9673a6;" vertex="1" parent="1">
          <mxGeometry x="760" y="350" width="30" height="25" as="geometry" />
        </mxCell>
        <mxCell id="Vrmo7h_9KylANDgEpbV6-34" value="MEM" style="rounded=0;whiteSpace=wrap;html=1;fillColor=#e1d5e7;strokeColor=#9673a6;" vertex="1" parent="1">
          <mxGeometry x="640" y="350" width="30" height="25" as="geometry" />
        </mxCell>
        <mxCell id="Vrmo7h_9KylANDgEpbV6-35" value="MEM" style="rounded=0;whiteSpace=wrap;html=1;fillColor=#e1d5e7;strokeColor=#9673a6;" vertex="1" parent="1">
          <mxGeometry x="680" y="350" width="30" height="25" as="geometry" />
        </mxCell>
        <mxCell id="Vrmo7h_9KylANDgEpbV6-36" value="MEM" style="rounded=0;whiteSpace=wrap;html=1;fillColor=#e1d5e7;strokeColor=#9673a6;" vertex="1" parent="1">
          <mxGeometry x="720" y="350" width="30" height="25" as="geometry" />
        </mxCell>
        <mxCell id="Vrmo7h_9KylANDgEpbV6-37" value="WB" style="rounded=0;whiteSpace=wrap;html=1;fillColor=#bac8d3;strokeColor=#23445d;" vertex="1" parent="1">
          <mxGeometry x="800" y="350" width="30" height="25" as="geometry" />
        </mxCell>
        <mxCell id="Vrmo7h_9KylANDgEpbV6-38" value="IF" style="rounded=0;whiteSpace=wrap;html=1;fillColor=#ffe6cc;strokeColor=#d79b00;" vertex="1" parent="1">
          <mxGeometry x="480" y="390" width="30" height="25" as="geometry" />
        </mxCell>
        <mxCell id="Vrmo7h_9KylANDgEpbV6-39" value="ID" style="rounded=0;whiteSpace=wrap;html=1;fillColor=#dae8fc;strokeColor=#6c8ebf;" vertex="1" parent="1">
          <mxGeometry x="600" y="390" width="30" height="25" as="geometry" />
        </mxCell>
        <mxCell id="Vrmo7h_9KylANDgEpbV6-40" value="EXE" style="rounded=0;whiteSpace=wrap;html=1;fillColor=#d5e8d4;strokeColor=#82b366;" vertex="1" parent="1">
          <mxGeometry x="800" y="390" width="30" height="25" as="geometry" />
        </mxCell>
        <mxCell id="Vrmo7h_9KylANDgEpbV6-41" value="MEM" style="rounded=0;whiteSpace=wrap;html=1;fillColor=#e1d5e7;strokeColor=#9673a6;" vertex="1" parent="1">
          <mxGeometry x="840" y="390" width="30" height="25" as="geometry" />
        </mxCell>
        <mxCell id="Vrmo7h_9KylANDgEpbV6-42" value="WB" style="rounded=0;whiteSpace=wrap;html=1;fillColor=#bac8d3;strokeColor=#23445d;" vertex="1" parent="1">
          <mxGeometry x="880" y="390" width="30" height="25" as="geometry" />
        </mxCell>
        <mxCell id="Vrmo7h_9KylANDgEpbV6-43" value="IF" style="rounded=0;whiteSpace=wrap;html=1;fillColor=#ffe6cc;strokeColor=#d79b00;" vertex="1" parent="1">
          <mxGeometry x="600" y="430" width="30" height="25" as="geometry" />
        </mxCell>
        <mxCell id="Vrmo7h_9KylANDgEpbV6-44" value="ID" style="rounded=0;whiteSpace=wrap;html=1;fillColor=#dae8fc;strokeColor=#6c8ebf;" vertex="1" parent="1">
          <mxGeometry x="800" y="430" width="30" height="25" as="geometry" />
        </mxCell>
        <mxCell id="Vrmo7h_9KylANDgEpbV6-45" value="EXE" style="rounded=0;whiteSpace=wrap;html=1;fillColor=#d5e8d4;strokeColor=#82b366;" vertex="1" parent="1">
          <mxGeometry x="840" y="430" width="30" height="25" as="geometry" />
        </mxCell>
        <mxCell id="Vrmo7h_9KylANDgEpbV6-46" value="MEM" style="rounded=0;whiteSpace=wrap;html=1;fillColor=#e1d5e7;strokeColor=#9673a6;" vertex="1" parent="1">
          <mxGeometry x="880" y="430" width="30" height="25" as="geometry" />
        </mxCell>
        <mxCell id="Vrmo7h_9KylANDgEpbV6-47" value="WB" style="rounded=0;whiteSpace=wrap;html=1;fillColor=#bac8d3;strokeColor=#23445d;" vertex="1" parent="1">
          <mxGeometry x="920" y="430" width="30" height="25" as="geometry" />
        </mxCell>
        <mxCell id="Vrmo7h_9KylANDgEpbV6-48" value="IF" style="rounded=0;whiteSpace=wrap;html=1;fillColor=#ffe6cc;strokeColor=#d79b00;" vertex="1" parent="1">
          <mxGeometry x="800" y="470" width="30" height="25" as="geometry" />
        </mxCell>
        <mxCell id="Vrmo7h_9KylANDgEpbV6-49" value="ID" style="rounded=0;whiteSpace=wrap;html=1;fillColor=#dae8fc;strokeColor=#6c8ebf;" vertex="1" parent="1">
          <mxGeometry x="840" y="470" width="30" height="25" as="geometry" />
        </mxCell>
        <mxCell id="Vrmo7h_9KylANDgEpbV6-50" value="EXE" style="rounded=0;whiteSpace=wrap;html=1;fillColor=#d5e8d4;strokeColor=#82b366;" vertex="1" parent="1">
          <mxGeometry x="880" y="470" width="30" height="25" as="geometry" />
        </mxCell>
        <mxCell id="Vrmo7h_9KylANDgEpbV6-51" value="MEM" style="rounded=0;whiteSpace=wrap;html=1;fillColor=#e1d5e7;strokeColor=#9673a6;" vertex="1" parent="1">
          <mxGeometry x="920" y="470" width="30" height="25" as="geometry" />
        </mxCell>
        <mxCell id="Vrmo7h_9KylANDgEpbV6-52" value="WB" style="rounded=0;whiteSpace=wrap;html=1;fillColor=#bac8d3;strokeColor=#23445d;" vertex="1" parent="1">
          <mxGeometry x="960" y="470" width="30" height="25" as="geometry" />
        </mxCell>
        <mxCell id="Vrmo7h_9KylANDgEpbV6-53" value="IF" style="rounded=0;whiteSpace=wrap;html=1;fillColor=#ffe6cc;strokeColor=#d79b00;" vertex="1" parent="1">
          <mxGeometry x="840" y="510" width="30" height="25" as="geometry" />
        </mxCell>
        <mxCell id="Vrmo7h_9KylANDgEpbV6-54" value="ID" style="rounded=0;whiteSpace=wrap;html=1;fillColor=#dae8fc;strokeColor=#6c8ebf;" vertex="1" parent="1">
          <mxGeometry x="880" y="510" width="30" height="25" as="geometry" />
        </mxCell>
        <mxCell id="Vrmo7h_9KylANDgEpbV6-55" value="EXE" style="rounded=0;whiteSpace=wrap;html=1;fillColor=#d5e8d4;strokeColor=#82b366;" vertex="1" parent="1">
          <mxGeometry x="960" y="510" width="30" height="25" as="geometry" />
        </mxCell>
        <mxCell id="Vrmo7h_9KylANDgEpbV6-56" value="EXE" style="rounded=0;whiteSpace=wrap;html=1;fillColor=#d5e8d4;strokeColor=#82b366;" vertex="1" parent="1">
          <mxGeometry x="1000" y="510" width="30" height="25" as="geometry" />
        </mxCell>
        <mxCell id="Vrmo7h_9KylANDgEpbV6-57" value="EXE" style="rounded=0;whiteSpace=wrap;html=1;fillColor=#d5e8d4;strokeColor=#82b366;" vertex="1" parent="1">
          <mxGeometry x="1040" y="510" width="30" height="25" as="geometry" />
        </mxCell>
        <mxCell id="Vrmo7h_9KylANDgEpbV6-58" value="MEM" style="rounded=0;whiteSpace=wrap;html=1;fillColor=#e1d5e7;strokeColor=#9673a6;" vertex="1" parent="1">
          <mxGeometry x="1080" y="510" width="30" height="25" as="geometry" />
        </mxCell>
        <mxCell id="Vrmo7h_9KylANDgEpbV6-59" value="WB" style="rounded=0;whiteSpace=wrap;html=1;fillColor=#bac8d3;strokeColor=#23445d;" vertex="1" parent="1">
          <mxGeometry x="1120" y="510" width="30" height="25" as="geometry" />
        </mxCell>
        <mxCell id="Vrmo7h_9KylANDgEpbV6-60" value="IF" style="rounded=0;whiteSpace=wrap;html=1;fillColor=#ffe6cc;strokeColor=#d79b00;" vertex="1" parent="1">
          <mxGeometry x="880" y="550" width="30" height="25" as="geometry" />
        </mxCell>
        <mxCell id="Vrmo7h_9KylANDgEpbV6-61" value="ID" style="rounded=0;whiteSpace=wrap;html=1;fillColor=#dae8fc;strokeColor=#6c8ebf;" vertex="1" parent="1">
          <mxGeometry x="960" y="550" width="30" height="25" as="geometry" />
        </mxCell>
        <mxCell id="Vrmo7h_9KylANDgEpbV6-62" value="EXE" style="rounded=0;whiteSpace=wrap;html=1;fillColor=#d5e8d4;strokeColor=#82b366;" vertex="1" parent="1">
          <mxGeometry x="1080" y="550" width="30" height="25" as="geometry" />
        </mxCell>
        <mxCell id="Vrmo7h_9KylANDgEpbV6-63" value="MEM" style="rounded=0;whiteSpace=wrap;html=1;fillColor=#e1d5e7;strokeColor=#9673a6;" vertex="1" parent="1">
          <mxGeometry x="1120" y="550" width="30" height="25" as="geometry" />
        </mxCell>
        <mxCell id="Vrmo7h_9KylANDgEpbV6-64" value="WB" style="rounded=0;whiteSpace=wrap;html=1;fillColor=#bac8d3;strokeColor=#23445d;" vertex="1" parent="1">
          <mxGeometry x="1160" y="550" width="30" height="25" as="geometry" />
        </mxCell>
        <mxCell id="Vrmo7h_9KylANDgEpbV6-65" value="IF" style="rounded=0;whiteSpace=wrap;html=1;fillColor=#ffe6cc;strokeColor=#d79b00;" vertex="1" parent="1">
          <mxGeometry x="960" y="590" width="30" height="25" as="geometry" />
        </mxCell>
        <mxCell id="Vrmo7h_9KylANDgEpbV6-66" value="ID" style="rounded=0;whiteSpace=wrap;html=1;fillColor=#dae8fc;strokeColor=#6c8ebf;" vertex="1" parent="1">
          <mxGeometry x="1080" y="590" width="30" height="25" as="geometry" />
        </mxCell>
        <mxCell id="Vrmo7h_9KylANDgEpbV6-67" value="EXE" style="rounded=0;whiteSpace=wrap;html=1;fillColor=#d5e8d4;strokeColor=#82b366;" vertex="1" parent="1">
          <mxGeometry x="1160" y="590" width="30" height="25" as="geometry" />
        </mxCell>
        <mxCell id="Vrmo7h_9KylANDgEpbV6-68" value="MEM" style="rounded=0;whiteSpace=wrap;html=1;fillColor=#e1d5e7;strokeColor=#9673a6;" vertex="1" parent="1">
          <mxGeometry x="1200" y="590" width="30" height="25" as="geometry" />
        </mxCell>
        <mxCell id="Vrmo7h_9KylANDgEpbV6-69" value="WB" style="rounded=0;whiteSpace=wrap;html=1;fillColor=#bac8d3;strokeColor=#23445d;" vertex="1" parent="1">
          <mxGeometry x="1240" y="590" width="30" height="25" as="geometry" />
        </mxCell>
        <mxCell id="Vrmo7h_9KylANDgEpbV6-70" value="IF" style="rounded=0;whiteSpace=wrap;html=1;fillColor=#ffe6cc;strokeColor=#d79b00;" vertex="1" parent="1">
          <mxGeometry x="1080" y="630" width="30" height="25" as="geometry" />
        </mxCell>
        <mxCell id="Vrmo7h_9KylANDgEpbV6-71" value="ID" style="rounded=0;whiteSpace=wrap;html=1;fillColor=#dae8fc;strokeColor=#6c8ebf;" vertex="1" parent="1">
          <mxGeometry x="1160" y="630" width="30" height="25" as="geometry" />
        </mxCell>
        <mxCell id="Vrmo7h_9KylANDgEpbV6-72" value="EXE" style="rounded=0;whiteSpace=wrap;html=1;fillColor=#d5e8d4;strokeColor=#82b366;" vertex="1" parent="1">
          <mxGeometry x="1200" y="630" width="30" height="25" as="geometry" />
        </mxCell>
        <mxCell id="Vrmo7h_9KylANDgEpbV6-73" value="MEM" style="rounded=0;whiteSpace=wrap;html=1;fillColor=#e1d5e7;strokeColor=#9673a6;" vertex="1" parent="1">
          <mxGeometry x="1240" y="630" width="30" height="25" as="geometry" />
        </mxCell>
        <mxCell id="Vrmo7h_9KylANDgEpbV6-74" value="WB" style="rounded=0;whiteSpace=wrap;html=1;fillColor=#bac8d3;strokeColor=#23445d;" vertex="1" parent="1">
          <mxGeometry x="1280" y="630" width="30" height="25" as="geometry" />
        </mxCell>
        <mxCell id="Vrmo7h_9KylANDgEpbV6-75" value="MEM" style="rounded=0;whiteSpace=wrap;html=1;fillColor=#e1d5e7;strokeColor=#9673a6;" vertex="1" parent="1">
          <mxGeometry x="400" y="220" width="30" height="25" as="geometry" />
        </mxCell>
        <mxCell id="Vrmo7h_9KylANDgEpbV6-76" value="MEM" style="rounded=0;whiteSpace=wrap;html=1;fillColor=#e1d5e7;strokeColor=#9673a6;" vertex="1" parent="1">
          <mxGeometry x="290" y="752.5" width="30" height="25" as="geometry" />
        </mxCell>
        <mxCell id="Vrmo7h_9KylANDgEpbV6-77" value="MEM" style="rounded=0;whiteSpace=wrap;html=1;fillColor=#e1d5e7;strokeColor=#9673a6;" vertex="1" parent="1">
          <mxGeometry x="170" y="752.5" width="30" height="25" as="geometry" />
        </mxCell>
        <mxCell id="Vrmo7h_9KylANDgEpbV6-78" value="MEM" style="rounded=0;whiteSpace=wrap;html=1;fillColor=#e1d5e7;strokeColor=#9673a6;" vertex="1" parent="1">
          <mxGeometry x="210" y="752.5" width="30" height="25" as="geometry" />
        </mxCell>
        <mxCell id="Vrmo7h_9KylANDgEpbV6-79" value="MEM" style="rounded=0;whiteSpace=wrap;html=1;fillColor=#e1d5e7;strokeColor=#9673a6;" vertex="1" parent="1">
          <mxGeometry x="250" y="752.5" width="30" height="25" as="geometry" />
        </mxCell>
        <mxCell id="Vrmo7h_9KylANDgEpbV6-80" value="EXE" style="rounded=0;whiteSpace=wrap;html=1;fillColor=#d5e8d4;strokeColor=#82b366;" vertex="1" parent="1">
          <mxGeometry x="330" y="890" width="30" height="25" as="geometry" />
        </mxCell>
        <mxCell id="Vrmo7h_9KylANDgEpbV6-81" value="EXE" style="rounded=0;whiteSpace=wrap;html=1;fillColor=#d5e8d4;strokeColor=#82b366;" vertex="1" parent="1">
          <mxGeometry x="370" y="890" width="30" height="25" as="geometry" />
        </mxCell>
        <mxCell id="Vrmo7h_9KylANDgEpbV6-82" value="EXE" style="rounded=0;whiteSpace=wrap;html=1;fillColor=#d5e8d4;strokeColor=#82b366;" vertex="1" parent="1">
          <mxGeometry x="410" y="890" width="30" height="25" as="geometry" />
        </mxCell>
        <mxCell id="Vrmo7h_9KylANDgEpbV6-83" value="MEM" style="rounded=0;whiteSpace=wrap;html=1;fillColor=#e1d5e7;strokeColor=#9673a6;" vertex="1" parent="1">
          <mxGeometry x="330" y="780" width="30" height="25" as="geometry" />
        </mxCell>
        <mxCell id="Vrmo7h_9KylANDgEpbV6-84" value="EXE" style="rounded=0;whiteSpace=wrap;html=1;fillColor=#d5e8d4;strokeColor=#82b366;" vertex="1" parent="1">
          <mxGeometry x="370" y="925" width="30" height="25" as="geometry" />
        </mxCell>
        <mxCell id="Vrmo7h_9KylANDgEpbV6-85" value="EXE" style="rounded=0;whiteSpace=wrap;html=1;fillColor=#d5e8d4;strokeColor=#82b366;" vertex="1" parent="1">
          <mxGeometry x="410" y="925" width="30" height="25" as="geometry" />
        </mxCell>
        <mxCell id="Vrmo7h_9KylANDgEpbV6-86" value="EXE" style="rounded=0;whiteSpace=wrap;html=1;fillColor=#d5e8d4;strokeColor=#82b366;" vertex="1" parent="1">
          <mxGeometry x="450" y="925" width="30" height="25" as="geometry" />
        </mxCell>
        <mxCell id="Vrmo7h_9KylANDgEpbV6-87" value="MEM" style="rounded=0;whiteSpace=wrap;html=1;fillColor=#e1d5e7;strokeColor=#9673a6;" vertex="1" parent="1">
          <mxGeometry x="370" y="815" width="30" height="25" as="geometry" />
        </mxCell>
        <mxCell id="Vrmo7h_9KylANDgEpbV6-88" value="EXE" style="rounded=0;whiteSpace=wrap;html=1;fillColor=#d5e8d4;strokeColor=#82b366;" vertex="1" parent="1">
          <mxGeometry x="410" y="960" width="30" height="25" as="geometry" />
        </mxCell>
        <mxCell id="Vrmo7h_9KylANDgEpbV6-89" value="EXE" style="rounded=0;whiteSpace=wrap;html=1;fillColor=#d5e8d4;strokeColor=#82b366;" vertex="1" parent="1">
          <mxGeometry x="450" y="960" width="30" height="25" as="geometry" />
        </mxCell>
        <mxCell id="Vrmo7h_9KylANDgEpbV6-90" value="EXE" style="rounded=0;whiteSpace=wrap;html=1;fillColor=#d5e8d4;strokeColor=#82b366;" vertex="1" parent="1">
          <mxGeometry x="490" y="960" width="30" height="25" as="geometry" />
        </mxCell>
        <mxCell id="Vrmo7h_9KylANDgEpbV6-92" value="MEM" style="rounded=0;whiteSpace=wrap;html=1;fillColor=#e1d5e7;strokeColor=#9673a6;" vertex="1" parent="1">
          <mxGeometry x="410" y="850" width="30" height="25" as="geometry" />
        </mxCell>
        <mxCell id="Vrmo7h_9KylANDgEpbV6-94" value="EXE" style="rounded=0;whiteSpace=wrap;html=1;fillColor=#d5e8d4;strokeColor=#82b366;" vertex="1" parent="1">
          <mxGeometry x="450" y="997.5" width="30" height="25" as="geometry" />
        </mxCell>
        <mxCell id="Vrmo7h_9KylANDgEpbV6-95" value="EXE" style="rounded=0;whiteSpace=wrap;html=1;fillColor=#d5e8d4;strokeColor=#82b366;" vertex="1" parent="1">
          <mxGeometry x="490" y="997.5" width="30" height="25" as="geometry" />
        </mxCell>
        <mxCell id="Vrmo7h_9KylANDgEpbV6-96" value="EXE" style="rounded=0;whiteSpace=wrap;html=1;fillColor=#d5e8d4;strokeColor=#82b366;" vertex="1" parent="1">
          <mxGeometry x="530" y="997.5" width="30" height="25" as="geometry" />
        </mxCell>
        <mxCell id="Vrmo7h_9KylANDgEpbV6-97" value="v[1]" style="text;html=1;strokeColor=none;fillColor=none;align=center;verticalAlign=middle;whiteSpace=wrap;rounded=0;" vertex="1" parent="1">
          <mxGeometry x="275" y="777.5" width="60" height="30" as="geometry" />
        </mxCell>
        <mxCell id="Vrmo7h_9KylANDgEpbV6-98" value="v[0]" style="text;html=1;strokeColor=none;fillColor=none;align=center;verticalAlign=middle;whiteSpace=wrap;rounded=0;" vertex="1" parent="1">
          <mxGeometry x="110" y="750" width="60" height="30" as="geometry" />
        </mxCell>
        <mxCell id="Vrmo7h_9KylANDgEpbV6-99" value="v[2]" style="text;html=1;strokeColor=none;fillColor=none;align=center;verticalAlign=middle;whiteSpace=wrap;rounded=0;" vertex="1" parent="1">
          <mxGeometry x="320" y="812.5" width="60" height="30" as="geometry" />
        </mxCell>
        <mxCell id="Vrmo7h_9KylANDgEpbV6-100" value="v[3]" style="text;html=1;strokeColor=none;fillColor=none;align=center;verticalAlign=middle;whiteSpace=wrap;rounded=0;" vertex="1" parent="1">
          <mxGeometry x="355" y="847.5" width="60" height="30" as="geometry" />
        </mxCell>
        <mxCell id="Vrmo7h_9KylANDgEpbV6-101" value="v[0]" style="text;html=1;strokeColor=none;fillColor=none;align=center;verticalAlign=middle;whiteSpace=wrap;rounded=0;" vertex="1" parent="1">
          <mxGeometry x="265" y="887.5" width="60" height="30" as="geometry" />
        </mxCell>
        <mxCell id="Vrmo7h_9KylANDgEpbV6-102" value="v[1]" style="text;html=1;strokeColor=none;fillColor=none;align=center;verticalAlign=middle;whiteSpace=wrap;rounded=0;" vertex="1" parent="1">
          <mxGeometry x="310" y="922.5" width="60" height="30" as="geometry" />
        </mxCell>
        <mxCell id="Vrmo7h_9KylANDgEpbV6-103" value="v[2]" style="text;html=1;strokeColor=none;fillColor=none;align=center;verticalAlign=middle;whiteSpace=wrap;rounded=0;" vertex="1" parent="1">
          <mxGeometry x="355" y="957.5" width="60" height="30" as="geometry" />
        </mxCell>
        <mxCell id="Vrmo7h_9KylANDgEpbV6-104" value="v[3]" style="text;html=1;strokeColor=none;fillColor=none;align=center;verticalAlign=middle;whiteSpace=wrap;rounded=0;" vertex="1" parent="1">
          <mxGeometry x="395" y="995" width="60" height="30" as="geometry" />
        </mxCell>
        <mxCell id="Vrmo7h_9KylANDgEpbV6-105" value="&lt;font style=&quot;font-size: 16px;&quot;&gt;&lt;b&gt;...&lt;/b&gt;&lt;/font&gt;" style="text;html=1;strokeColor=none;fillColor=none;align=center;verticalAlign=middle;whiteSpace=wrap;rounded=0;" vertex="1" parent="1">
          <mxGeometry x="530" y="1040" width="60" height="30" as="geometry" />
        </mxCell>
        <mxCell id="Vrmo7h_9KylANDgEpbV6-107" value="EXE" style="rounded=0;whiteSpace=wrap;html=1;fillColor=#d5e8d4;strokeColor=#82b366;" vertex="1" parent="1">
          <mxGeometry x="520" y="1122.5" width="30" height="25" as="geometry" />
        </mxCell>
        <mxCell id="Vrmo7h_9KylANDgEpbV6-108" value="EXE" style="rounded=0;whiteSpace=wrap;html=1;fillColor=#d5e8d4;strokeColor=#82b366;" vertex="1" parent="1">
          <mxGeometry x="560" y="1122.5" width="30" height="25" as="geometry" />
        </mxCell>
        <mxCell id="Vrmo7h_9KylANDgEpbV6-109" value="EXE" style="rounded=0;whiteSpace=wrap;html=1;fillColor=#d5e8d4;strokeColor=#82b366;" vertex="1" parent="1">
          <mxGeometry x="600" y="1122.5" width="30" height="25" as="geometry" />
        </mxCell>
        <mxCell id="Vrmo7h_9KylANDgEpbV6-110" value="EXE" style="rounded=0;whiteSpace=wrap;html=1;fillColor=#d5e8d4;strokeColor=#82b366;" vertex="1" parent="1">
          <mxGeometry x="560" y="1157.5" width="30" height="25" as="geometry" />
        </mxCell>
        <mxCell id="Vrmo7h_9KylANDgEpbV6-111" value="EXE" style="rounded=0;whiteSpace=wrap;html=1;fillColor=#d5e8d4;strokeColor=#82b366;" vertex="1" parent="1">
          <mxGeometry x="600" y="1157.5" width="30" height="25" as="geometry" />
        </mxCell>
        <mxCell id="Vrmo7h_9KylANDgEpbV6-112" value="EXE" style="rounded=0;whiteSpace=wrap;html=1;fillColor=#d5e8d4;strokeColor=#82b366;" vertex="1" parent="1">
          <mxGeometry x="640" y="1157.5" width="30" height="25" as="geometry" />
        </mxCell>
        <mxCell id="Vrmo7h_9KylANDgEpbV6-113" value="EXE" style="rounded=0;whiteSpace=wrap;html=1;fillColor=#d5e8d4;strokeColor=#82b366;" vertex="1" parent="1">
          <mxGeometry x="600" y="1192.5" width="30" height="25" as="geometry" />
        </mxCell>
        <mxCell id="Vrmo7h_9KylANDgEpbV6-114" value="EXE" style="rounded=0;whiteSpace=wrap;html=1;fillColor=#d5e8d4;strokeColor=#82b366;" vertex="1" parent="1">
          <mxGeometry x="640" y="1192.5" width="30" height="25" as="geometry" />
        </mxCell>
        <mxCell id="Vrmo7h_9KylANDgEpbV6-115" value="EXE" style="rounded=0;whiteSpace=wrap;html=1;fillColor=#d5e8d4;strokeColor=#82b366;" vertex="1" parent="1">
          <mxGeometry x="680" y="1192.5" width="30" height="25" as="geometry" />
        </mxCell>
        <mxCell id="Vrmo7h_9KylANDgEpbV6-116" value="MEM" style="rounded=0;whiteSpace=wrap;html=1;fillColor=#e1d5e7;strokeColor=#9673a6;" vertex="1" parent="1">
          <mxGeometry x="600" y="1082.5" width="30" height="25" as="geometry" />
        </mxCell>
        <mxCell id="Vrmo7h_9KylANDgEpbV6-117" value="EXE" style="rounded=0;whiteSpace=wrap;html=1;fillColor=#d5e8d4;strokeColor=#82b366;" vertex="1" parent="1">
          <mxGeometry x="640" y="1230" width="30" height="25" as="geometry" />
        </mxCell>
        <mxCell id="Vrmo7h_9KylANDgEpbV6-118" value="EXE" style="rounded=0;whiteSpace=wrap;html=1;fillColor=#d5e8d4;strokeColor=#82b366;" vertex="1" parent="1">
          <mxGeometry x="680" y="1230" width="30" height="25" as="geometry" />
        </mxCell>
        <mxCell id="Vrmo7h_9KylANDgEpbV6-119" value="EXE" style="rounded=0;whiteSpace=wrap;html=1;fillColor=#d5e8d4;strokeColor=#82b366;" vertex="1" parent="1">
          <mxGeometry x="720" y="1230" width="30" height="25" as="geometry" />
        </mxCell>
        <mxCell id="Vrmo7h_9KylANDgEpbV6-120" value="v[31]" style="text;html=1;strokeColor=none;fillColor=none;align=center;verticalAlign=middle;whiteSpace=wrap;rounded=0;" vertex="1" parent="1">
          <mxGeometry x="545" y="1080" width="60" height="30" as="geometry" />
        </mxCell>
        <mxCell id="Vrmo7h_9KylANDgEpbV6-121" value="v[28]" style="text;html=1;strokeColor=none;fillColor=none;align=center;verticalAlign=middle;whiteSpace=wrap;rounded=0;" vertex="1" parent="1">
          <mxGeometry x="456" y="1120" width="60" height="30" as="geometry" />
        </mxCell>
        <mxCell id="Vrmo7h_9KylANDgEpbV6-122" value="v[29]" style="text;html=1;strokeColor=none;fillColor=none;align=center;verticalAlign=middle;whiteSpace=wrap;rounded=0;" vertex="1" parent="1">
          <mxGeometry x="500" y="1155" width="60" height="30" as="geometry" />
        </mxCell>
        <mxCell id="Vrmo7h_9KylANDgEpbV6-123" value="v[30]" style="text;html=1;strokeColor=none;fillColor=none;align=center;verticalAlign=middle;whiteSpace=wrap;rounded=0;" vertex="1" parent="1">
          <mxGeometry x="545" y="1190" width="60" height="30" as="geometry" />
        </mxCell>
        <mxCell id="Vrmo7h_9KylANDgEpbV6-124" value="v[31]" style="text;html=1;strokeColor=none;fillColor=none;align=center;verticalAlign=middle;whiteSpace=wrap;rounded=0;" vertex="1" parent="1">
          <mxGeometry x="585" y="1227.5" width="60" height="30" as="geometry" />
        </mxCell>
        <mxCell id="Vrmo7h_9KylANDgEpbV6-125" value="MEM" style="rounded=0;whiteSpace=wrap;html=1;fillColor=#e1d5e7;strokeColor=#9673a6;" vertex="1" parent="1">
          <mxGeometry x="760" y="1272.5" width="30" height="25" as="geometry" />
        </mxCell>
        <mxCell id="Vrmo7h_9KylANDgEpbV6-126" value="MEM" style="rounded=0;whiteSpace=wrap;html=1;fillColor=#e1d5e7;strokeColor=#9673a6;" vertex="1" parent="1">
          <mxGeometry x="640" y="1272.5" width="30" height="25" as="geometry" />
        </mxCell>
        <mxCell id="Vrmo7h_9KylANDgEpbV6-127" value="MEM" style="rounded=0;whiteSpace=wrap;html=1;fillColor=#e1d5e7;strokeColor=#9673a6;" vertex="1" parent="1">
          <mxGeometry x="680" y="1272.5" width="30" height="25" as="geometry" />
        </mxCell>
        <mxCell id="Vrmo7h_9KylANDgEpbV6-128" value="MEM" style="rounded=0;whiteSpace=wrap;html=1;fillColor=#e1d5e7;strokeColor=#9673a6;" vertex="1" parent="1">
          <mxGeometry x="720" y="1272.5" width="30" height="25" as="geometry" />
        </mxCell>
        <mxCell id="Vrmo7h_9KylANDgEpbV6-129" value="EXE" style="rounded=0;whiteSpace=wrap;html=1;fillColor=#d5e8d4;strokeColor=#82b366;" vertex="1" parent="1">
          <mxGeometry x="800" y="1410" width="30" height="25" as="geometry" />
        </mxCell>
        <mxCell id="Vrmo7h_9KylANDgEpbV6-132" value="MEM" style="rounded=0;whiteSpace=wrap;html=1;fillColor=#e1d5e7;strokeColor=#9673a6;" vertex="1" parent="1">
          <mxGeometry x="800" y="1300" width="30" height="25" as="geometry" />
        </mxCell>
        <mxCell id="Vrmo7h_9KylANDgEpbV6-133" value="EXE" style="rounded=0;whiteSpace=wrap;html=1;fillColor=#d5e8d4;strokeColor=#82b366;" vertex="1" parent="1">
          <mxGeometry x="840" y="1445" width="30" height="25" as="geometry" />
        </mxCell>
        <mxCell id="Vrmo7h_9KylANDgEpbV6-136" value="MEM" style="rounded=0;whiteSpace=wrap;html=1;fillColor=#e1d5e7;strokeColor=#9673a6;" vertex="1" parent="1">
          <mxGeometry x="840" y="1335" width="30" height="25" as="geometry" />
        </mxCell>
        <mxCell id="Vrmo7h_9KylANDgEpbV6-137" value="EXE" style="rounded=0;whiteSpace=wrap;html=1;fillColor=#d5e8d4;strokeColor=#82b366;" vertex="1" parent="1">
          <mxGeometry x="880" y="1480" width="30" height="25" as="geometry" />
        </mxCell>
        <mxCell id="Vrmo7h_9KylANDgEpbV6-140" value="MEM" style="rounded=0;whiteSpace=wrap;html=1;fillColor=#e1d5e7;strokeColor=#9673a6;" vertex="1" parent="1">
          <mxGeometry x="880" y="1370" width="30" height="25" as="geometry" />
        </mxCell>
        <mxCell id="Vrmo7h_9KylANDgEpbV6-141" value="EXE" style="rounded=0;whiteSpace=wrap;html=1;fillColor=#d5e8d4;strokeColor=#82b366;" vertex="1" parent="1">
          <mxGeometry x="920" y="1517.5" width="30" height="25" as="geometry" />
        </mxCell>
        <mxCell id="Vrmo7h_9KylANDgEpbV6-144" value="v[1]" style="text;html=1;strokeColor=none;fillColor=none;align=center;verticalAlign=middle;whiteSpace=wrap;rounded=0;" vertex="1" parent="1">
          <mxGeometry x="745" y="1297.5" width="60" height="30" as="geometry" />
        </mxCell>
        <mxCell id="Vrmo7h_9KylANDgEpbV6-145" value="v[0]" style="text;html=1;strokeColor=none;fillColor=none;align=center;verticalAlign=middle;whiteSpace=wrap;rounded=0;" vertex="1" parent="1">
          <mxGeometry x="585" y="1267.5" width="60" height="30" as="geometry" />
        </mxCell>
        <mxCell id="Vrmo7h_9KylANDgEpbV6-146" value="v[2]" style="text;html=1;strokeColor=none;fillColor=none;align=center;verticalAlign=middle;whiteSpace=wrap;rounded=0;" vertex="1" parent="1">
          <mxGeometry x="790" y="1332.5" width="60" height="30" as="geometry" />
        </mxCell>
        <mxCell id="Vrmo7h_9KylANDgEpbV6-148" value="v[0]" style="text;html=1;strokeColor=none;fillColor=none;align=center;verticalAlign=middle;whiteSpace=wrap;rounded=0;" vertex="1" parent="1">
          <mxGeometry x="735" y="1407.5" width="60" height="30" as="geometry" />
        </mxCell>
        <mxCell id="Vrmo7h_9KylANDgEpbV6-149" value="v[1]" style="text;html=1;strokeColor=none;fillColor=none;align=center;verticalAlign=middle;whiteSpace=wrap;rounded=0;" vertex="1" parent="1">
          <mxGeometry x="780" y="1442.5" width="60" height="30" as="geometry" />
        </mxCell>
        <mxCell id="Vrmo7h_9KylANDgEpbV6-150" value="v[2]" style="text;html=1;strokeColor=none;fillColor=none;align=center;verticalAlign=middle;whiteSpace=wrap;rounded=0;" vertex="1" parent="1">
          <mxGeometry x="825" y="1477.5" width="60" height="30" as="geometry" />
        </mxCell>
        <mxCell id="Vrmo7h_9KylANDgEpbV6-151" value="v[3]" style="text;html=1;strokeColor=none;fillColor=none;align=center;verticalAlign=middle;whiteSpace=wrap;rounded=0;" vertex="1" parent="1">
          <mxGeometry x="865" y="1515" width="60" height="30" as="geometry" />
        </mxCell>
        <mxCell id="Vrmo7h_9KylANDgEpbV6-152" value="&lt;font style=&quot;font-size: 16px;&quot;&gt;&lt;b&gt;...&lt;/b&gt;&lt;/font&gt;" style="text;html=1;strokeColor=none;fillColor=none;align=center;verticalAlign=middle;whiteSpace=wrap;rounded=0;" vertex="1" parent="1">
          <mxGeometry x="930" y="1550" width="60" height="30" as="geometry" />
        </mxCell>
        <mxCell id="L_iptdbOxY_8dgDS9CZv-1" value="v[3]" style="text;html=1;strokeColor=none;fillColor=none;align=center;verticalAlign=middle;whiteSpace=wrap;rounded=0;" vertex="1" parent="1">
          <mxGeometry x="825" y="1365" width="60" height="30" as="geometry" />
        </mxCell>
      </root>
    </mxGraphModel>
  </diagram>
</mxfile>
